<?xml version="1.0"?>
<svg width="800" height="800" xmlns="http://www.w3.org/2000/svg" xmlns:svg="http://www.w3.org/2000/svg" version="1.1">
 <g class="layer">
  <title>Layer 1</title>
  <g id="svg_194">
   <g fill="none" id="svg_1" stroke-width="2">
    <path d="m170.13,129.48c-3.74,8.66 -6.28,17.99 -6.1,27.61q0.17,9.62 0.03,19.91c-0.11,8.33 5.02,13.41 13.56,12.73q9.16,-0.72 9.52,-9.69q0.35,-9.01 0.07,-17.77c-0.66,-20.08 8.75,-33.91 22.83,-46.83q31.14,-28.57 69.08,-42.17q18.98,-6.81 35.71,-9.21c14.2,-2.03 31.56,-0.94 38.63,14.17q1.85,3.93 1.82,9.5q-0.18,42.55 0.04,87.55q0.01,1.33 1.32,1.33l22.01,-0.03a0.64,0.65 0 0 0 0.64,-0.65q0.25,-43.32 0.21,-86.36c-0.01,-12.13 -1.64,-21.62 -8.68,-30.54c-13.8,-17.51 -33.58,-22.66 -55.34,-19.91q-27.12,3.41 -52.83,14.24q-36.08,15.19 -65.38,41.14c-10.57,9.36 -21.49,21.87 -27.15,34.97" id="svg_2" stroke="#818d94"/>
    <path d="m577.39,105.46q3.56,3.23 8.01,6.92c15.16,12.62 27.15,28.27 26.89,49.18q-0.1,7.67 -0.39,15.98c-0.24,6.8 3.11,11.73 10.35,12.25q11.93,0.86 12.21,-10.11q0.24,-9.01 0.06,-21.7q-0.32,-22.74 -13.67,-41.53q-11.25,-15.83 -26.7,-27.85" id="svg_3" stroke="#345f76"/>
    <path d="m594.15,88.61q-27.09,-22.01 -59.65,-34.84q-7.94,-3.14 -14.29,-5.48q-17.18,-6.33 -37.07,-8.93c-23.26,-3.03 -46.34,2.43 -59.48,23.04q-7.39,11.58 -7.47,22.57q-0.57,71.45 -0.01,151.89c0.03,3.96 -1.08,8.66 4.78,9.07q7.23,0.48 13.88,0.14q5.97,-0.3 6.02,-6.2q0.49,-75.45 0.15,-154.75c-0.04,-9.55 8.74,-17.67 17.33,-20.19q9.97,-2.92 22.36,-0.97q12.9,2.03 19.07,3.74q41.97,11.62 77.62,37.77" id="svg_4" stroke="#818d94"/>
    <path d="m594.15,88.61l-16.76,16.85" id="svg_5" stroke="#b2d2e1"/>
    <path d="m461.07,118.8q-0.5,10.26 -0.49,20.19q0.14,106.63 0.11,218.54c0,4.71 -0.86,10.67 1.44,14.75q1.68,3.03 4.14,5.47q10.59,10.6 22.66,22.36a1.86,1.86 45.1 0 1 0,2.69q-10.22,10.01 -21.17,20.01c-5.29,4.84 -12.06,12.48 -6.38,19.97q4.99,6.58 12.9,4.5q3.31,-0.87 9.16,-6.82q17.79,-18.13 34.39,-35.02q2.2,-2.24 2.99,-4.68" id="svg_6" stroke="#345f76"/>
    <path d="m520.82,400.74q83.31,-0.23 165.48,-0.17q12.25,0 15.04,0.58c23.57,4.91 30.34,35.34 30.64,55.26" id="svg_7" stroke="#818d94"/>
    <path d="m731.98,456.41q0.43,15.13 -0.73,30.47c-2.1,27.74 -13.15,55.58 -32.61,75.7q-12.9,13.34 -25.91,21.86q-14.37,9.4 -28.04,15.27q-1,0.42 -1.98,0.86q-25.53,11.25 -50.28,14.9c-6.97,1.03 -14.23,1.33 -21.07,3.02q-5.29,1.3 -5.41,6.63q-0.18,7.7 -0.28,15.54q-0.15,11.9 -9.73,18.47c-11.16,7.67 -18.77,16.85 -18.03,31.5q0.35,7.09 4.78,14.38q4.25,7.02 10.84,11.51" id="svg_8" stroke="#345f76"/>
    <path d="m553.51,716.52c26.37,17.23 57.98,-3.41 72.17,-25.86c3.87,-6.12 7.33,-11.84 8.74,-19.23q1.3,-6.94 -1.6,-10.94q-3.18,-4.43 -8.82,-4.65c-8.27,-0.34 -11.55,6.87 -14.57,13.68c-4.33,9.76 -11.82,18.33 -20.44,24.1c-5.55,3.72 -14.86,7.76 -21.83,4.94" id="svg_9" stroke="#818d94"/>
    <path d="m567.16,698.54q-3.29,-3.84 -4.01,-5.05c-3.77,-6.33 -0.01,-12.32 5.61,-15.69c13.81,-8.28 20.71,-22.01 19.9,-38.41q-0.06,-1.13 1.05,-1.24q8.97,-0.93 17.02,-2.26c18.2,-2.96 38.74,-10.52 56.66,-19.37q10.14,-5.01 20.09,-11.39q18.07,-11.6 34.34,-29.48q17.32,-19.04 26.42,-42.61q13.54,-35.04 11.01,-76.45" id="svg_10" stroke="#345f76"/>
    <path d="m755.24,456.58q0.77,-22.22 -7.67,-42.99c-7.88,-19.4 -26.71,-37.08 -48.64,-37.07q-85.18,0.06 -177.35,0.01a1.46,1.47 0 0 1 -1.46,-1.48l0.04,-10.11" id="svg_11" stroke="#818d94"/>
    <path d="m520.16,364.94q0.18,-17.37 0.01,-34.71q-0.04,-5.05 -1.47,-7.19c-3.13,-4.64 -9.73,-5.2 -14.58,-3.75q-6.65,1.99 -6.72,8.97q-0.15,18.4 0.01,36.58" id="svg_12" stroke="#345f76"/>
    <path d="m497.42,364.83l-0.24,12.44" id="svg_13" stroke="#818d94"/>
    <path d="m497.18,377.27q-5.9,-6.63 -11.95,-12.3q-2.5,-2.35 -2.5,-4.27c0.13,-40.48 0.62,-81.01 0.18,-121.49c-0.2,-18.18 0.41,-36.24 0,-54.1q-0.6,-26.64 -0.21,-38.38q0.43,-13.42 0.11,-20.18" id="svg_14" stroke="#345f76"/>
    <path d="m482.82,126.55q7.82,-2.72 11.92,-8.93c12.49,-18.95 -13.91,-40.57 -29.92,-25.32q-12.03,11.45 -3.74,26.49" id="svg_15" stroke="#818d94"/>
    <path d="m482.82,126.55q-12.02,3.05 -21.75,-7.76" id="svg_16" stroke="#b2d2e1"/>
    <path d="m497.18,377.27q10.59,13.18 23.64,23.48" id="svg_17" stroke="#b2d2e1"/>
    <path d="m755.24,456.58l-23.26,-0.17" id="svg_18" stroke="#b2d2e1"/>
    <path d="m567.16,698.54q-9.28,7.37 -13.64,17.98" id="svg_19" stroke="#b2d2e1"/>
    <path d="m520.16,364.94l-22.74,-0.11" id="svg_20" stroke="#b2d2e1"/>
    <path d="m315.66,127.89q-0.14,68.89 -0.03,146.61q0.01,9.32 7.64,11.75c6.24,2 12.86,-0.71 13.82,-7.64q0.43,-3.21 0.45,-6.36q0.17,-70.4 0.06,-140.28c-0.01,-3.67 -2.45,-5.47 -4.84,-7.73a1.11,1.11 0 0 1 -0.07,-1.54c2.55,-2.9 5.2,-5.87 5.59,-9.88c0.45,-4.46 0.73,-9.97 -1.23,-14.07q-3.21,-6.66 -9.51,-9.31q-12.68,-5.34 -22.34,4.19q-7.5,7.4 -5.12,18.32q2.58,11.79 14.75,14.88q0.81,0.21 0.81,1.07" id="svg_21" stroke="#345f76"/>
    <path d="m536.27,117.89a12.31,12.38 0 0 0 -12.31,-12.38a12.31,12.38 0 0 0 -12.31,12.38a12.31,12.38 0 0 0 12.31,12.38a12.31,12.38 0 0 0 12.31,-12.38" id="svg_22" stroke="#345f76"/>
    <path d="m269.63,129.86a12.37,11.93 108.4 0 0 15.16,-8.04a12.37,11.93 108.4 0 0 -7.36,-15.57a12.37,11.93 108.4 0 0 -15.16,8.04a12.37,11.93 108.4 0 0 7.36,15.57" id="svg_23" stroke="#345f76"/>
    <path d="m557.93,164.23l-34.58,32.94a2.27,2.27 36.1 0 1 -2.55,0.39q-9.06,-4.39 -17.85,1.2q-7.84,4.99 -8.47,14.78c-0.52,7.8 4.08,15.69 11.27,18.61q10.19,4.13 19.8,-3.34c2.44,-1.9 3.62,-4.77 5.62,-7.04c5.27,-6.01 10.92,-11.9 16.74,-17.46q15.86,-15.17 31,-30.7" id="svg_24" stroke="#345f76"/>
    <path d="m578.92,173.62c13.7,-3.33 20.06,-16.6 14.99,-29.77c-5.97,-15.5 -26.56,-17.24 -36.05,-3.41q-7.38,10.74 0.07,23.79" id="svg_25" stroke="#818d94"/>
    <path d="m578.92,173.62q-12.37,1.17 -20.99,-9.39" id="svg_26" stroke="#b2d2e1"/>
    <path d="m237.55,248.87l70.77,71.29" id="svg_27" stroke="#818d94"/>
    <path d="m308.31,320.16q0.06,-0.63 0.1,0.48a0.7,0.71 0 0 1 -0.7,0.73q-17.18,-0.03 -34.95,-0.14q-2.94,-0.03 -5.06,-2.2c-3.77,-3.89 -7.28,-8.12 -11.13,-11.89q-15.27,-14.96 -33.51,-33.21q-4.61,-4.61 -9.8,-8.39a5.65,5.65 63.1 0 0 -3.25,-1.07l-56.08,-0.38" id="svg_28" stroke="#345f76"/>
    <path d="m153.91,264.1q-27.8,0.01 -55.78,0.03q-8.23,0 -10.68,1.28c-6.69,3.5 -7.96,15.19 -1.23,19.53q2.59,1.68 8.37,1.73q29.51,0.28 59.24,-0.04" id="svg_29" stroke="#818d94"/>
    <path d="m153.83,286.63l47.56,-0.08a4.98,4.96 -22 0 1 3.6,1.52c9.62,9.93 19.91,19.59 29.51,29.36q11.08,11.25 22.83,22.69c3.08,3.02 6.13,3.58 10.26,3.57q46.68,-0.16 93.13,-0.38c10.18,-0.06 18.23,0.59 18.23,-11.84q0.03,-56.25 0.45,-111.74a2.1,2.1 0.4 0 0 -2.1,-2.13l-19.62,0.08q-2.01,0.01 -2.02,2.03l-0.29,100.15a1.07,1.07 0 0 1 -1.14,1.07l-14.86,-0.82" id="svg_30" stroke="#345f76"/>
    <path d="m339.37,320.1q0,-0.28 -0.03,-0.51q-0.07,-0.54 -0.43,-0.92l-84.88,-86.73" id="svg_31" stroke="#818d94"/>
    <path d="m254.02,231.95l-3.25,-4.2q-0.38,-0.48 -0.36,-1.07q0.21,-27.4 0.28,-55.74c0.01,-5.22 -4.49,-7.39 -6.97,-11.34a2.48,2.47 33.1 0 1 -0.36,-1.68c0.77,-5.89 0.64,-12.9 -3.1,-17.71c-13.12,-16.89 -37.18,-7.8 -37.41,13.21q-0.11,9.28 7.42,15.37c5.4,4.36 10.87,4.94 17.48,4.07a0.59,0.58 85.9 0 1 0.66,0.59l-0.45,63.56a3.1,3.12 0 0 0 0.8,2.09l8.79,9.76" id="svg_32" stroke="#345f76"/>
    <path d="m254.02,231.95l-16.47,16.92" id="svg_33" stroke="#b2d2e1"/>
    <path d="m153.83,286.63l0.08,-22.53" id="svg_34" stroke="#b2d2e1"/>
    <path d="m308.31,320.16l31.06,-0.06" id="svg_35" stroke="#b2d2e1"/>
    <path d="m298.65,163.39a13.94,14.02 0 0 0 -13.94,-14.02a13.94,14.02 0 0 0 -13.94,14.02a13.94,14.02 0 0 0 13.94,14.02a13.94,14.02 0 0 0 13.94,-14.02" id="svg_36" stroke="#80753d"/>
    <path d="m525.7,163.46a13.87,13.95 0 0 0 -13.87,-13.95a13.87,13.95 0 0 0 -13.87,13.95a13.87,13.95 0 0 0 13.87,13.95a13.87,13.95 0 0 0 13.87,-13.95" id="svg_37" stroke="#80753d"/>
    <path d="m669.12,218.36l0.18,15.4a3.2,3.2 67.6 0 1 -0.98,2.38l-86.1,83.64" id="svg_38" stroke="#818d94"/>
    <path d="m582.22,319.78q-0.35,0.54 -1.23,1.04q-0.63,0.35 -1.51,0.31q-7.5,-0.41 -14.93,0.51" id="svg_39" stroke="#345f76"/>
    <path d="m564.54,321.64c-6.51,-6.74 -16.42,-8.5 -24.23,-3.24c-8.75,5.88 -12.31,17.23 -6.07,26.14q5.72,8.15 16.07,8.29q9.8,0.13 16.18,-8.88" id="svg_40" stroke="#818d94"/>
    <path d="m566.48,343.95q9.67,0.16 19,0.11c2.96,-0.01 6.09,-0.92 7.94,-2.92q10.47,-11.35 22.62,-21.36" id="svg_41" stroke="#345f76"/>
    <path d="m616.04,319.78q37.56,-37.46 75.45,-74.98q1,-0.97 1.04,-2.88q0.45,-17.88 -1.46,-32.43" id="svg_42" stroke="#818d94"/>
    <path d="m691.06,209.49q-4.63,-16.65 -15.13,-29.99c-3.81,-4.85 -10.4,-10.62 -16.84,-9.98q-6.48,0.63 -8.5,7.46q-1.56,5.22 1.28,8.45q14.04,15.99 17.25,32.94" id="svg_43" stroke="#345f76"/>
    <path d="m691.06,209.49q-12.13,3.6 -21.94,8.87" id="svg_44" stroke="#b2d2e1"/>
    <path d="m616.04,319.78l-33.82,0" id="svg_45" stroke="#b2d2e1"/>
    <path d="m564.54,321.64q5.9,7.99 4.33,15.59q-0.35,1.68 -2.38,6.71" id="svg_46" stroke="#b2d2e1"/>
    <path d="m109.21,201.08q-5.73,15.03 -4.49,37.15c0.66,11.73 23.08,10.48 23.26,1.37c0.17,-7.99 -0.46,-16.16 1.37,-23.9q3.6,-15.23 13.99,-25.39c4.67,-4.57 6.03,-12.39 0.77,-16.96c-4.87,-4.23 -11.44,-3.71 -16.43,0.1c-8.48,6.44 -14.72,17.77 -18.48,27.64" id="svg_47" stroke="#818d94"/>
    <path d="m285.72,233.87a19.2,18.61 89.3 0 0 18.27,-19.53a19.2,18.61 89.3 0 0 -18.75,-19.08a19.2,18.61 89.3 0 0 -18.27,19.53a19.2,18.61 89.3 0 0 18.75,19.08" id="svg_48" stroke="#345f76"/>
    <path d="m190.22,240a18.48,17.94 81.7 0 0 14.99,-20.98a18.48,17.94 81.7 0 0 -20.32,-15.79a18.48,17.94 81.7 0 0 -14.99,20.98a18.48,17.94 81.7 0 0 20.32,15.79" id="svg_49" stroke="#80753d"/>
    <path d="m628.02,221.7a18.44,18.54 0 0 0 -18.44,-18.54a18.44,18.54 0 0 0 -18.44,18.54a18.44,18.54 0 0 0 18.44,18.54a18.44,18.54 0 0 0 18.44,-18.54" id="svg_50" stroke="#80753d"/>
    <path d="m517.54,263.46q-15.69,-1.69 -21.44,11.2q-2.64,5.92 -1.6,10.83c2.08,9.77 9.73,15.75 20.02,15.34q11.03,-0.42 16.08,-10.25c1.46,-2.83 1.74,-5.44 2.08,-8.5" id="svg_51" stroke="#818d94"/>
    <path d="m532.68,282.08q28.34,-28.92 40.18,-39.85q4.99,-4.61 4.64,-9.21q-0.39,-5.29 -4.11,-8.28q-3.44,-2.76 -8.88,-2.57q-4.4,0.16 -7.33,3.23q-12.98,13.59 -26.29,25.61q-1.74,1.55 -6.42,6.47q-3.35,3.51 -6.94,5.98" id="svg_52" stroke="#345f76"/>
    <path d="m532.68,282.08q-1.07,-15.19 -15.14,-18.61" id="svg_53" stroke="#b2d2e1"/>
    <path d="m429.26,287.56a13.01,12.63 86.5 0 0 11.74,-13.83a13.01,12.63 86.5 0 0 -13.33,-12.28a13.01,12.63 86.5 0 0 -11.74,13.83a13.01,12.63 86.5 0 0 13.33,12.28" id="svg_54" stroke="#345f76"/>
    <path d="m593.1,275a12.18,12.25 0 0 0 -12.18,-12.25a12.18,12.25 0 0 0 -12.18,12.25a12.18,12.25 0 0 0 12.18,12.25a12.18,12.25 0 0 0 12.18,-12.25" id="svg_55" stroke="#345f76"/>
    <path d="m701.4,287.69a12.31,12.07 88.2 0 0 11.61,-12.76a12.31,12.07 88.2 0 0 -12.39,-12a12.31,12.07 88.2 0 0 -11.61,12.76a12.31,12.07 88.2 0 0 12.39,12" id="svg_56" stroke="#345f76"/>
    <path d="m165.49,321.67q-26.02,-0.44 -35.94,-0.04q-2.23,0.1 -4.49,2.16q-1.47,1.34 -1.49,3.53c-0.04,6.64 -1.79,16.47 8.36,16.53q15.61,0.07 32.12,-0.21" id="svg_57" stroke="#345f76"/>
    <path d="m164.06,343.62q2.99,3.61 4.05,4.64c6.07,5.85 15.58,5.78 22.91,1.37q6.48,-3.91 7.71,-12.59c2.1,-14.95 -13.38,-26.73 -26.93,-20.18q-2.34,1.13 -6.31,4.81" id="svg_58" stroke="#818d94"/>
    <path d="m164.06,343.62q-5.34,-11.55 1.43,-21.95" id="svg_59" stroke="#b2d2e1"/>
    <path d="m100.21,334.43a18.12,18.22 0 0 0 -18.12,-18.22a18.12,18.22 0 0 0 -18.12,18.22a18.12,18.22 0 0 0 18.12,18.22a18.12,18.22 0 0 0 18.12,-18.22" id="svg_60" stroke="#80753d"/>
    <path d="m733.15,334.47a18.16,18.26 0 0 0 -18.16,-18.26a18.16,18.26 0 0 0 -18.16,18.26a18.16,18.26 0 0 0 18.16,18.26a18.16,18.26 0 0 0 18.16,-18.26" id="svg_61" stroke="#80753d"/>
    <path d="m655.81,320.67c-17.62,6.94 -27.76,23.51 -24.69,42.33c1.07,6.54 14.44,5.58 19.36,4.61q1.96,-0.39 2.13,-2.4q0.41,-4.82 0.38,-10.18c-0.04,-8.45 7.01,-12.37 14.57,-11.84c6.81,0.48 7.84,-5.91 7.87,-11.18c0.07,-11.04 -10.66,-14.86 -19.62,-11.34" id="svg_62" stroke="#345f76"/>
    <path d="m416.13,658.11q-0.84,11.87 0.17,14.82q1.56,4.54 6.23,5.13c4.32,0.54 13.1,1.2 16.84,-2.34c3.25,-3.09 2.09,-13.21 1.7,-17.51" id="svg_63" stroke="#345f76"/>
    <path d="m441.06,658.21q0.22,-139.72 0.13,-279.54q-0.03,-26.04 -0.46,-52.09c-0.04,-2.45 -0.74,-4.07 -3.04,-4.81q-9.94,-3.17 -18.66,-0.16c-2.08,0.71 -3.06,1.79 -3.06,4.1q-0.1,127.2 0.27,273.26q0.07,29.31 -0.1,59.12" id="svg_64" stroke="#818d94"/>
    <path d="m441.06,658.21l-24.93,-0.1" id="svg_65" stroke="#b2d2e1"/>
    <path d="m233.93,342.92a12.65,12.11 -39.3 0 0 -17.41,-1.33a12.65,12.11 -39.3 0 0 -2.16,17.43a12.65,12.11 -39.3 0 0 17.41,1.33a12.65,12.11 -39.3 0 0 2.16,-17.43" id="svg_66" stroke="#345f76"/>
    <path d="m271.1,376.58q-80.65,0.06 -160.67,-0.07q-16.43,-0.01 -22.74,1.69c-18.97,5.13 -33.4,23.15 -39.05,41.45c-5.75,18.58 -5.94,35.91 -5.36,56.46q0.42,14.61 3,29.61c6.81,39.51 29.19,72.74 62.31,95.66" id="svg_67" stroke="#818d94"/>
    <path d="m108.59,601.38q44.63,31.01 99.45,36.91a0.73,0.73 0 0 1 0.66,0.82c-1.33,14.1 5.02,29.54 17.29,37.42q3.01,1.92 5.12,4.19c5.47,5.88 4.14,14.65 -3.7,17.48q-5.06,1.83 -10.32,0.44c-14.37,-3.84 -25.45,-18.37 -30.31,-32.37c-1.75,-5.06 -4.28,-9.67 -10.04,-10.58c-8.4,-1.3 -14.34,5.64 -12.8,13.79c2.83,14.96 11.46,27.19 22.53,37.28c13.4,12.22 33.41,19.95 50.76,12.49c17.79,-7.64 25.5,-29.51 15.94,-46.54c-3.13,-5.56 -7.81,-9.26 -12.7,-13.18c-9.96,-7.98 -10.28,-17.34 -9.66,-28.98c0.31,-5.54 -1.56,-11.38 -7.45,-12.75c-6.72,-1.57 -13.94,-1.54 -20.6,-2.61q-42.34,-6.84 -78.41,-31.64" id="svg_68" stroke="#345f76"/>
    <path d="m124.35,583.55q-8.55,-6.16 -11.93,-9.04q-32.81,-27.92 -42.08,-69.33c-4.04,-18.02 -3.49,-37.06 -2.8,-56.2c0.59,-16.37 5.99,-33.63 19.53,-43.54q6.6,-4.85 19.27,-4.85q82.61,-0.01 164.78,0.16" id="svg_69" stroke="#818d94"/>
    <path d="m271.11,400.74q20.77,21.95 42.3,42.54q2.69,2.58 2.64,6.37q-0.22,14.79 -0.52,33.74c-0.11,6.78 0.06,13.68 6.74,16.19q8.2,3.07 13.17,-3.27c2.17,-2.79 2.13,-6.78 2.17,-10.17q0.27,-20.28 0.04,-42.67c-0.06,-5.53 -1.79,-9.25 -5.62,-13.08q-16.43,-16.51 -33.01,-32.36q-0.55,-0.51 -0.55,-1.27q-0.07,-6.09 -0.06,-11.89q0.03,-7.59 -6.1,-8.56q-6.84,-1.09 -21.23,0.25" id="svg_70" stroke="#345f76"/>
    <path d="m271.11,400.74q1.51,-11.45 -0.01,-24.17" id="svg_71" stroke="#b2d2e1"/>
    <path d="m124.35,583.55l-15.76,17.82" id="svg_72" stroke="#b2d2e1"/>
    <path d="m302.28,754.86q9.69,-0.27 18.56,-0.03q11.16,0.31 17.58,-1.02q17.41,-3.61 28.56,-17.84q12.53,-16 12.52,-34.02q-0.14,-136.15 -0.01,-275.8c0.01,-16.68 -1.37,-28.07 -12.79,-38.87q-13.33,-12.63 -31.17,-10.9q-3.76,0.37 -6.59,2.64c-3.41,2.71 -2.93,9.53 -2.94,13.52c-0.03,7.52 6.95,8.21 12.61,7.98c5.36,-0.23 10.14,4.2 13.07,8.54c3.77,5.56 3.39,9.49 3.39,15.75q-0.03,133.77 -0.01,267.54q0,12.51 -0.43,14.88c-1.96,10.84 -10.47,19.78 -20.78,23.27q-4.63,1.57 -14.11,1.54q-7.29,-0.03 -14.33,-0.2c-1.96,-0.04 -4.5,0.66 -6.04,-0.94c-8.5,-8.85 -20.84,-10.53 -30.4,-2.34c-17.18,14.72 -2.52,40.59 18.45,36.93c6.04,-1.06 9.84,-4.82 13.15,-9.69a2.15,2.14 16.4 0 1 1.71,-0.93" id="svg_73" stroke="#818d94"/>
    <path d="m174.94,453.76l-53.72,0.21" id="svg_74" stroke="#345f76"/>
    <path d="m121.23,453.97q-5.41,-9.69 -14.92,-11c-11.99,-1.66 -22.7,6.53 -23.88,18.7c-2.22,22.91 27.3,32.95 38.89,12.38" id="svg_75" stroke="#818d94"/>
    <path d="m121.32,474.05l52.47,-0.1" id="svg_76" stroke="#345f76"/>
    <path d="m173.79,473.95l15.11,-0.27q1.71,-0.03 2.9,-1.25l28.81,-29.13a6.32,6.33 -67.4 0 1 4.46,-1.86l24.38,-0.03q4.28,0 4.29,-4.31l0.08,-15.23a3.04,3.06 0 0 0 -3.06,-3.07q-17.6,0.08 -34.58,0.06c-3.08,0 -5.29,1.57 -7.42,3.64q-15.69,15.23 -31.32,30.53q-0.86,0.83 -2.52,0.75" id="svg_77" stroke="#818d94"/>
    <path d="m173.79,473.95l1.15,-20.19" id="svg_78" stroke="#b2d2e1"/>
    <path d="m121.23,453.97q3.25,8.36 1.79,13.82q-0.86,3.24 -1.7,6.26" id="svg_79" stroke="#b2d2e1"/>
    <path d="m677.48,474.15q6.03,11.08 18.82,11.24c16.07,0.2 23.91,-16.58 18.19,-30.15q-3.49,-8.26 -11.48,-10.8q-16.55,-5.26 -25.7,9.35" id="svg_80" stroke="#818d94"/>
    <path d="m677.29,453.79l-56.17,0.06a2.44,2.44 -22.2 0 1 -1.74,-0.73q-13.84,-14.02 -28.27,-28.21c-3.65,-3.58 -6.51,-6.23 -11.93,-6.13q-12.79,0.24 -26.12,0.03c-3.58,-0.06 -9.11,-0.92 -9.42,4.39q-0.39,6.68 -0.17,12.61q0.22,5.88 6.28,5.89q11.54,0.01 24.16,-0.37a3.21,3.2 -23.9 0 1 2.31,0.89q14.64,14.28 28.31,29.1q2.24,2.44 3.77,2.47q31.59,0.54 63.1,0.23q2.99,-0.03 6.07,0.16" id="svg_81" stroke="#345f76"/>
    <path d="m677.29,453.79q-4.32,10.73 0.18,20.36" id="svg_82" stroke="#b2d2e1"/>
    <path d="m161.93,431.26a11.83,11.9 0 0 0 -11.83,-11.9a11.83,11.9 0 0 0 -11.83,11.9a11.83,11.9 0 0 0 11.83,11.9a11.83,11.9 0 0 0 11.83,-11.9" id="svg_83" stroke="#345f76"/>
    <path d="m658.39,431.62a12.1,11.83 0.7 0 0 -11.96,-11.99a12.1,11.83 0.7 0 0 -12.24,11.67a12.1,11.83 0.7 0 0 11.96,11.99a12.1,11.83 0.7 0 0 12.24,-11.67" id="svg_84" stroke="#345f76"/>
    <path d="m263.15,457.91q-13.07,0.01 -25.7,0.1c-11.19,0.07 -20.11,1.93 -26.51,12.11c-4.51,7.16 -3.79,16.41 1.02,23.36q6.27,9.05 18.14,7.63c11.02,-1.34 15.83,-10.24 16.43,-20.6q0.04,-0.9 0.94,-0.9l16.31,-0.08" id="svg_85" stroke="#345f76"/>
    <path d="m263.78,479.52q1.58,1.68 3.27,3.5c13.22,14.27 34.6,4.61 35.78,-13.75c1,-15.41 -13.22,-26.71 -27.85,-21.78q-6.67,2.26 -11.83,10.42" id="svg_86" stroke="#818d94"/>
    <path d="m263.78,479.52q-4.28,-6.87 -2.54,-14.41q0.8,-3.5 1.91,-7.21" id="svg_87" stroke="#b2d2e1"/>
    <path d="m530.27,479.08l19.84,0.16a1.28,1.28 0 0 1 1.26,1.28q-0.03,18.6 16.22,20.26c17.75,1.8 26.82,-17.43 17.91,-31.77q-6.55,-10.55 -20.29,-11.04q-17.06,-0.61 -34.49,-0.28" id="svg_88" stroke="#345f76"/>
    <path d="m530.72,457.69q-5.08,-8.25 -13.67,-10.77c-17.22,-5.09 -33.27,14.44 -24.37,30.57q6.45,11.69 19.18,12.18c7.99,0.31 14.18,-3.98 18.41,-10.59" id="svg_89" stroke="#818d94"/>
    <path d="m530.72,457.69q5.02,11.58 -0.45,21.39" id="svg_90" stroke="#b2d2e1"/>
    <path d="m463.54,499.64a12.17,11.97 123 0 0 16.62,-3.75a12.17,11.97 123 0 0 -3.35,-16.78a12.17,11.97 123 0 0 -16.62,3.75a12.17,11.97 123 0 0 3.35,16.78" id="svg_91" stroke="#345f76"/>
    <path d="m594.22,540.35q3.87,-2.33 6.67,-5.19q12.62,-12.97 26.09,-25.92c4.26,-4.07 5.85,-8.85 2.26,-14.24c-4.92,-7.43 -14.32,-6.8 -20.26,-0.97q-9.79,9.59 -20.02,19.7c-2.06,2.04 -4.11,3.86 -7.18,3.86q-19.67,-0.04 -35.5,-0.04a3.44,3.45 0 0 0 -3.44,3.4l-0.28,16.34q-0.06,3.43 3.34,3.41l47.67,-0.17a1.46,1.37 27.1 0 0 0.64,-0.18" id="svg_92" stroke="#818d94"/>
    <path d="m184.49,522.64l16.55,16.48a5.36,5.34 -22.5 0 0 3.76,1.55q20.29,0.04 42.29,-0.03q2.41,0 4.74,-0.31a2.78,2.79 0 0 0 2.41,-2.75l0,-16.82a3.08,3.1 0 0 0 -3.08,-3.12l-38.22,-0.11a3.65,3.61 -21.2 0 1 -2.59,-1.13l-10.1,-10.72" id="svg_93" stroke="#818d94"/>
    <path d="m200.24,505.69q-3.69,-3.99 -7.89,-7.7q-6.39,-5.63 -8.1,-6.51c-3.95,-2.06 -10.12,-2.02 -13.64,1.24c-3.62,3.34 -5.16,8.91 -2.57,13.14q0.31,0.52 4.68,5.4q5.71,6.39 11.78,11.38" id="svg_94" stroke="#345f76"/>
    <path d="m200.24,505.69q-8.58,7.74 -15.75,16.95" id="svg_95" stroke="#b2d2e1"/>
    <path d="m120.64,535.27l54.09,54.02a6.69,6.67 67.1 0 0 4.67,1.93l104.3,-0.03q0.73,0 1.29,0.48c1.29,1.11 2.08,2.93 3.22,4.23c7.11,7.99 17.91,8.4 27.3,3.76" id="svg_96" stroke="#818d94"/>
    <path d="m315.52,599.67l0.38,54.47" id="svg_97" stroke="#345f76"/>
    <path d="m315.9,654.14l-10.94,0.18a1.75,1.69 -25 0 1 -1.07,-0.37q-9.16,-7.35 -18.13,-16.38q-1.37,-1.4 -3.13,-2.37q-0.64,-0.35 -0.59,-1.09q0.15,-2.33 0.25,-4.55c0.29,-7.44 -6.65,-15.09 -12.48,-17.33q-8.54,-3.27 -16.78,0.48c-12.84,5.84 -16.59,24.59 -5.19,34.39q8.43,7.25 19.55,5.02a2.44,2.45 0 0 1 2.15,0.63l21.92,21.31a4.43,4.44 -22.7 0 0 3.1,1.27l21.9,0.04" id="svg_98" stroke="#818d94"/>
    <path d="m316.46,675.37q7.53,0.24 15.28,-0.06c6.98,-0.27 6.02,-8.63 6.03,-13.51q0.06,-33.59 -0.21,-69.12q-0.01,-3.71 -1.93,-6.56q-3.39,-5.02 -11.86,-3.88" id="svg_99" stroke="#345f76"/>
    <path d="m323.76,582.26q-0.2,-10.74 -7.81,-16.44c-9.51,-7.12 -20.74,-6.02 -29.11,2.92q-0.48,0.52 -1.19,0.52q-38.19,-0.47 -75.67,0.03q-10.46,0.14 -19.85,-0.27q-3.56,-0.17 -4.68,-1.25q-24.24,-23.7 -48.72,-48.08" id="svg_100" stroke="#818d94"/>
    <path d="m136.72,519.68q-7.68,-8.47 -16.69,-16.58c-5.72,-5.16 -14.08,0 -16.6,5.68q-2.54,5.67 0.07,9.57q5.83,8.71 17.13,16.92" id="svg_101" stroke="#345f76"/>
    <path d="m136.72,519.68l-16.08,15.59" id="svg_102" stroke="#b2d2e1"/>
    <path d="m323.76,582.26q-0.86,6.54 -3.07,10.91q-1.61,3.2 -5.17,6.5" id="svg_103" stroke="#b2d2e1"/>
    <path d="m316.46,675.37q1.05,-11.13 -0.56,-21.23" id="svg_104" stroke="#b2d2e1"/>
    <path d="m661.18,519.68l-49.23,47.86a5.06,5.08 -67 0 1 -3.52,1.44l-35.19,0" id="svg_105" stroke="#818d94"/>
    <path d="m573.24,568.97l-60.71,-0.3q-0.74,0 -1.26,-0.54c-7.59,-7.85 -17.86,-9.62 -27.33,-3.27q-7.23,4.86 -8.61,14.13c-2.13,14.47 10.5,25.07 24.33,21.93q7.15,-1.62 11.88,-8.54a3.18,3.16 17.1 0 1 2.61,-1.37l59.18,0.03" id="svg_106" stroke="#345f76"/>
    <path d="m573.33,591.04l45.67,-0.1a5.4,5.41 -67.1 0 0 3.76,-1.54l54.68,-53.68" id="svg_107" stroke="#818d94"/>
    <path d="m677.43,535.72q11.86,-9.79 16.49,-16.72q2.59,-3.89 1.63,-8.49q-0.84,-3.96 -4.22,-6.8q-7.25,-6.03 -15.41,1.44q-7.71,7.05 -14.74,14.52" id="svg_108" stroke="#345f76"/>
    <path d="m677.43,535.72l-16.25,-16.05" id="svg_109" stroke="#b2d2e1"/>
    <path d="m573.33,591.04l-0.08,-22.07" id="svg_110" stroke="#b2d2e1"/>
    <path d="m295.17,546a18.62,18.34 86.1 0 0 16.94,-19.92a18.62,18.34 86.1 0 0 -19.46,-17.44a18.62,18.34 86.1 0 0 -16.94,19.92a18.62,18.34 86.1 0 0 19.46,17.44" id="svg_111" stroke="#80753d"/>
    <path d="m507.01,545.51a18.72,18.3 76.4 0 0 13.29,-22.6a18.72,18.3 76.4 0 0 -22.1,-14a18.72,18.3 76.4 0 0 -13.29,22.6a18.72,18.3 76.4 0 0 22.1,14" id="svg_112" stroke="#80753d"/>
    <path d="m509.03,649.19q24.09,0.62 30.59,0.28c8.57,-0.47 8.13,-10.66 7.49,-16.78c-0.46,-4.36 -3.84,-5.95 -7.91,-5.91q-15.68,0.16 -30.23,0.16" id="svg_113" stroke="#345f76"/>
    <path d="m508.97,626.94q-22.13,0.11 -42.98,0.18c-4.05,0 -5.93,4.26 -5.93,7.7q-0.03,34.84 -0.07,70.23c-0.03,16.84 23.08,16.06 23.14,-0.18q0.11,-29.89 0.07,-54.99a0.83,0.83 0 0 1 0.83,-0.83l25,0.14" id="svg_114" stroke="#818d94"/>
    <path d="m508.97,626.94l0.06,22.25" id="svg_115" stroke="#b2d2e1"/>
    <path d="m512.33,700.78a12.27,12.01 77.4 0 0 8.97,-14.66a12.27,12.01 77.4 0 0 -14.33,-9.42a12.27,12.01 77.4 0 0 -8.97,14.66a12.27,12.01 77.4 0 0 14.33,9.42" id="svg_116" stroke="#345f76"/>
    <path d="m496.13,754.98q6.28,10.77 18.55,10.19c19.14,-0.9 26.86,-25.83 11.27,-37.65c-8.83,-6.68 -22.69,-4.27 -29.3,4.39q-0.39,0.51 -1,0.3l-1.32,-0.48q-0.95,-0.35 -1.98,-0.3q-9.65,0.48 -19.46,0.51q-18.94,0.07 -29.18,-17.51c-2.26,-3.86 -2.55,-8.69 -2.96,-13.1c-0.46,-5.01 -4.21,-8.46 -8.96,-9.01c-7.35,-0.86 -15.4,1.2 -15.14,10.29q0.41,14.24 9.59,27.79q13.03,19.22 33.99,22.96q13.05,2.31 34.18,0.72q1.14,-0.08 1.71,0.9" id="svg_117" stroke="#345f76"/>
    <path d="m324.18,717.17a12.45,12.07 99.6 0 0 13.91,-10.34a12.45,12.07 99.6 0 0 -9.76,-14.37a12.45,12.07 99.6 0 0 -13.91,10.34a12.45,12.07 99.6 0 0 9.76,14.37" id="svg_118" stroke="#345f76"/>
   </g>
   <path d="m681.49,647.5q-1.44,1.06 -1.72,2.61q-4.15,23.83 -14.33,45.61q-4.36,9.32 -10.45,17c-8.12,10.25 -15.97,21.83 -25.87,29.88q-22.59,18.37 -28.53,21.78q-8.23,4.72 -15.44,8.93c-7.18,4.19 -14.54,6.88 -21.9,10.45q-5.75,2.79 -11.95,4.12c-7.05,1.49 -13.56,4.6 -20.77,6.06q-50.07,10.22 -97.27,-6.11q-7.85,-2.72 -31.32,-14.68q-3.04,-1.54 -6.13,-0.03c-13.61,6.67 -27.71,14.2 -41.43,18.63q-8.93,2.88 -18.51,4.13q-22.18,2.92 -46.07,1.16q-17.22,-1.27 -39.53,-7.71c-7.98,-2.3 -15.38,-6.35 -23.37,-9.38c-14.22,-5.39 -27.64,-14.61 -40.13,-23.46q-8.24,-5.84 -24.09,-22.38c-21.19,-22.11 -36.82,-48.04 -43.12,-77.03c-0.86,-3.96 -0.22,-9.08 -5.4,-10.48q-13.61,-3.65 -29.37,-11.8q-10.26,-5.32 -16.46,-11.27q-10.28,-9.88 -21.31,-21.36c-6.14,-6.37 -11.9,-13.34 -16.26,-21.33c-3.6,-6.63 -7.82,-13.04 -10.95,-19.98q-13.4,-29.77 -18.47,-62.04q-1.46,-9.24 -1.33,-19.02c0.18,-13.38 -0.64,-27.34 1.85,-40.75c4.16,-22.45 11.1,-44.95 24.51,-62.59a5.82,5.78 64.1 0 0 1.18,-3.48q0.06,-5.48 -0.27,-12.27c-0.56,-12.11 -0.13,-27.2 3.38,-38.52q7.29,-23.59 27.48,-38.48a2.24,2.21 71.7 0 0 0.9,-1.83q-0.17,-13.85 -0.06,-26.55q0.17,-19.04 3.76,-37.73c4.42,-22.97 14.71,-43.41 28.81,-62.51q13.26,-17.95 36.22,-33.08q3.88,-2.55 5.75,-6.13q23.84,-45.77 65.35,-76.28q9.86,-7.25 26.23,-16.12c21.9,-11.83 47.97,-20.64 73.26,-22.69q26.3,-2.12 49.37,1.41q20.78,3.17 45.79,14.62q3.65,1.68 7.82,0.45c5.48,-1.59 10.11,-4.39 15.54,-6.22q24.66,-8.32 40.31,-9.63q16.52,-1.38 45.16,-0.03q10.05,0.48 19.55,3.02c20.25,5.41 38.11,12.66 55.76,21.42c6.79,3.37 12.76,8.42 19.32,12.58q12.52,7.9 24.79,19.78q14.74,14.26 23.63,25.61q9.1,11.6 17.23,27.74c3.11,6.18 8.26,10.38 13.95,14.28q34.2,23.45 49.66,62.87c7,17.85 11.72,36.89 12.53,56.46q0.84,20.78 1,36.84a2.02,2.03 0 0 0 0.66,1.47q10.82,10.17 19.22,20.66c5.78,7.22 8.48,16.95 10.42,26.4q1.35,6.63 1.37,13.18q0.04,14.78 -0.49,28.75q-0.04,0.92 0.36,1.76q0.48,0.97 1.05,1.86q12.38,19.08 18.72,40.34c3.56,11.93 6.42,25.23 6.98,37.94q0.73,16.71 0.11,34.79q-0.45,13.28 -3.62,26.69q-3.98,16.84 -8.78,30.13q-8.41,23.35 -24.72,45.57q-30.23,41.16 -78.53,55.43a3.28,3.12 16.8 0 0 -1.07,0.54zm-511.35,-518.01c-3.74,8.66 -6.28,17.99 -6.1,27.61q0.17,9.62 0.03,19.91c-0.11,8.33 5.02,13.41 13.56,12.73q9.16,-0.72 9.52,-9.69q0.35,-9.01 0.07,-17.77c-0.66,-20.08 8.75,-33.91 22.83,-46.83q31.14,-28.57 69.08,-42.17q18.98,-6.81 35.71,-9.21c14.2,-2.03 31.56,-0.94 38.63,14.17q1.85,3.93 1.82,9.5q-0.18,42.55 0.04,87.55q0.01,1.33 1.32,1.33l22.01,-0.03a0.64,0.65 0 0 0 0.64,-0.65q0.25,-43.32 0.21,-86.36c-0.01,-12.13 -1.64,-21.62 -8.68,-30.54c-13.8,-17.51 -33.58,-22.66 -55.34,-19.91q-27.12,3.41 -52.83,14.24q-36.08,15.19 -65.38,41.14c-10.57,9.36 -21.49,21.87 -27.15,34.97zm407.26,-24.03q3.56,3.23 8.01,6.92c15.16,12.62 27.15,28.27 26.89,49.18q-0.1,7.67 -0.39,15.98c-0.24,6.8 3.11,11.73 10.35,12.25q11.93,0.86 12.21,-10.11q0.24,-9.01 0.06,-21.7q-0.32,-22.74 -13.67,-41.53q-11.25,-15.83 -26.7,-27.85q-27.09,-22.01 -59.65,-34.84q-7.94,-3.14 -14.29,-5.48q-17.18,-6.33 -37.07,-8.93c-23.26,-3.03 -46.34,2.43 -59.48,23.04q-7.39,11.58 -7.47,22.57q-0.57,71.45 -0.01,151.89c0.03,3.96 -1.08,8.66 4.78,9.07q7.23,0.48 13.88,0.14q5.97,-0.3 6.02,-6.2q0.49,-75.45 0.15,-154.75c-0.04,-9.55 8.74,-17.67 17.33,-20.19q9.97,-2.92 22.36,-0.97q12.9,2.03 19.07,3.74q41.97,11.62 77.62,37.77zm-116.32,13.34q-0.5,10.26 -0.49,20.19q0.14,106.63 0.11,218.54c0,4.71 -0.86,10.67 1.44,14.75q1.68,3.03 4.14,5.47q10.59,10.6 22.66,22.36a1.86,1.86 45.1 0 1 0,2.69q-10.22,10.01 -21.17,20.01c-5.29,4.84 -12.06,12.48 -6.38,19.97q4.99,6.58 12.9,4.5q3.31,-0.87 9.16,-6.82q17.79,-18.13 34.39,-35.02q2.2,-2.24 2.99,-4.68q83.31,-0.23 165.48,-0.17q12.25,0 15.04,0.58c23.57,4.91 30.34,35.34 30.64,55.26q0.43,15.13 -0.73,30.47c-2.1,27.74 -13.15,55.58 -32.61,75.7q-12.9,13.34 -25.91,21.86q-14.37,9.4 -28.04,15.27q-1,0.42 -1.98,0.86q-25.53,11.25 -50.28,14.9c-6.97,1.03 -14.23,1.33 -21.07,3.02q-5.29,1.3 -5.41,6.63q-0.18,7.7 -0.28,15.54q-0.15,11.9 -9.73,18.47c-11.16,7.67 -18.77,16.85 -18.03,31.5q0.35,7.09 4.78,14.38q4.25,7.02 10.84,11.51c26.37,17.23 57.98,-3.41 72.17,-25.86c3.87,-6.12 7.33,-11.84 8.74,-19.23q1.3,-6.94 -1.6,-10.94q-3.18,-4.43 -8.82,-4.65c-8.27,-0.34 -11.55,6.87 -14.57,13.68c-4.33,9.76 -11.82,18.33 -20.44,24.1c-5.55,3.72 -14.86,7.76 -21.83,4.94q-3.29,-3.84 -4.01,-5.05c-3.77,-6.33 -0.01,-12.32 5.61,-15.69c13.81,-8.28 20.71,-22.01 19.9,-38.41q-0.06,-1.13 1.05,-1.24q8.97,-0.93 17.02,-2.26c18.2,-2.96 38.74,-10.52 56.66,-19.37q10.14,-5.01 20.09,-11.39q18.07,-11.6 34.34,-29.48q17.32,-19.04 26.42,-42.61q13.54,-35.04 11.01,-76.45q0.77,-22.22 -7.67,-42.99c-7.88,-19.4 -26.71,-37.08 -48.64,-37.07q-85.18,0.06 -177.35,0.01a1.46,1.47 0 0 1 -1.46,-1.48l0.04,-10.11q0.18,-17.37 0.01,-34.71q-0.04,-5.05 -1.47,-7.19c-3.13,-4.64 -9.73,-5.2 -14.58,-3.75q-6.65,1.99 -6.72,8.97q-0.15,18.4 0.01,36.58l-0.24,12.44q-5.9,-6.63 -11.95,-12.3q-2.5,-2.35 -2.5,-4.27c0.13,-40.48 0.62,-81.01 0.18,-121.49c-0.2,-18.18 0.41,-36.24 0,-54.1q-0.6,-26.64 -0.21,-38.38q0.43,-13.42 0.11,-20.18q7.82,-2.72 11.92,-8.93c12.49,-18.95 -13.91,-40.57 -29.92,-25.32q-12.03,11.45 -3.74,26.49zm-145.41,9.09q-0.14,68.89 -0.03,146.61q0.01,9.32 7.64,11.75c6.24,2 12.86,-0.71 13.82,-7.64q0.43,-3.21 0.45,-6.36q0.17,-70.4 0.06,-140.28c-0.01,-3.67 -2.45,-5.47 -4.84,-7.73a1.11,1.11 0 0 1 -0.07,-1.54c2.55,-2.9 5.2,-5.87 5.59,-9.88c0.45,-4.46 0.73,-9.97 -1.23,-14.07q-3.21,-6.66 -9.51,-9.31q-12.68,-5.34 -22.34,4.19q-7.5,7.4 -5.12,18.32q2.58,11.79 14.75,14.88q0.81,0.21 0.81,1.07zm220.61,-10a12.31,12.38 0 0 0 -12.31,-12.38a12.31,12.38 0 0 0 -12.31,12.38a12.31,12.38 0 0 0 12.31,12.38a12.31,12.38 0 0 0 12.31,-12.38zm-266.64,11.97a12.37,11.93 108.4 0 0 15.16,-8.04a12.37,11.93 108.4 0 0 -7.36,-15.57a12.37,11.93 108.4 0 0 -15.16,8.04a12.37,11.93 108.4 0 0 7.36,15.57zm288.3,34.36l-34.58,32.94a2.27,2.27 36.1 0 1 -2.55,0.39q-9.06,-4.39 -17.85,1.2q-7.84,4.99 -8.47,14.78c-0.52,7.8 4.08,15.69 11.27,18.61q10.19,4.13 19.8,-3.34c2.44,-1.9 3.62,-4.77 5.62,-7.04c5.27,-6.01 10.92,-11.9 16.74,-17.46q15.86,-15.17 31,-30.7c13.7,-3.33 20.06,-16.6 14.99,-29.77c-5.97,-15.5 -26.56,-17.24 -36.05,-3.41q-7.38,10.74 0.07,23.79zm-320.38,84.64l70.77,71.29q0.06,-0.63 0.1,0.48a0.7,0.71 0 0 1 -0.7,0.73q-17.18,-0.03 -34.95,-0.14q-2.94,-0.03 -5.06,-2.2c-3.77,-3.89 -7.28,-8.12 -11.13,-11.89q-15.27,-14.96 -33.51,-33.21q-4.61,-4.61 -9.8,-8.39a5.65,5.65 63.1 0 0 -3.25,-1.07l-56.08,-0.38q-27.8,0.01 -55.78,0.03q-8.23,0 -10.68,1.28c-6.69,3.5 -7.96,15.19 -1.23,19.53q2.59,1.68 8.37,1.73q29.51,0.28 59.24,-0.04l47.56,-0.08a4.98,4.96 -22 0 1 3.6,1.52c9.62,9.93 19.91,19.59 29.51,29.36q11.08,11.25 22.83,22.69c3.08,3.02 6.13,3.58 10.26,3.57q46.68,-0.16 93.13,-0.38c10.18,-0.06 18.23,0.59 18.23,-11.84q0.03,-56.25 0.45,-111.74a2.1,2.1 0.4 0 0 -2.1,-2.13l-19.62,0.08q-2.01,0.01 -2.02,2.03l-0.29,100.15a1.07,1.07 0 0 1 -1.14,1.07l-14.86,-0.82q0,-0.28 -0.03,-0.51q-0.07,-0.54 -0.43,-0.92l-84.88,-86.73l-3.25,-4.2q-0.38,-0.48 -0.36,-1.07q0.21,-27.4 0.28,-55.74c0.01,-5.22 -4.49,-7.39 -6.97,-11.34a2.48,2.47 33.1 0 1 -0.36,-1.68c0.77,-5.89 0.64,-12.9 -3.1,-17.71c-13.12,-16.89 -37.18,-7.8 -37.41,13.21q-0.11,9.28 7.42,15.37c5.4,4.36 10.87,4.94 17.48,4.07a0.59,0.58 85.9 0 1 0.66,0.59l-0.45,63.56a3.1,3.12 0 0 0 0.8,2.09l8.79,9.76zm61.1,-85.48a13.94,14.02 0 0 0 -13.94,-14.02a13.94,14.02 0 0 0 -13.94,14.02a13.94,14.02 0 0 0 13.94,14.02a13.94,14.02 0 0 0 13.94,-14.02zm227.05,0.07a13.87,13.95 0 0 0 -13.87,-13.95a13.87,13.95 0 0 0 -13.87,13.95a13.87,13.95 0 0 0 13.87,13.95a13.87,13.95 0 0 0 13.87,-13.95zm143.42,54.89l0.18,15.4a3.2,3.2 67.6 0 1 -0.98,2.38l-86.1,83.64q-0.35,0.54 -1.23,1.04q-0.63,0.35 -1.51,0.31q-7.5,-0.41 -14.93,0.51c-6.51,-6.74 -16.42,-8.5 -24.23,-3.24c-8.75,5.88 -12.31,17.23 -6.07,26.14q5.72,8.15 16.07,8.29q9.8,0.13 16.18,-8.88q9.67,0.16 19,0.11c2.96,-0.01 6.09,-0.92 7.94,-2.92q10.47,-11.35 22.62,-21.36q37.56,-37.46 75.45,-74.98q1,-0.97 1.04,-2.88q0.45,-17.88 -1.46,-32.43q-4.63,-16.65 -15.13,-29.99c-3.81,-4.85 -10.4,-10.62 -16.84,-9.98q-6.48,0.63 -8.5,7.46q-1.56,5.22 1.28,8.45q14.04,15.99 17.25,32.94zm-559.91,-17.27q-5.73,15.03 -4.49,37.15c0.66,11.73 23.08,10.48 23.26,1.37c0.17,-7.99 -0.46,-16.16 1.37,-23.9q3.6,-15.23 13.99,-25.39c4.67,-4.57 6.03,-12.39 0.77,-16.96c-4.87,-4.23 -11.44,-3.71 -16.43,0.1c-8.48,6.44 -14.72,17.77 -18.48,27.64zm176.51,32.78a19.2,18.61 89.3 0 0 18.27,-19.53a19.2,18.61 89.3 0 0 -18.75,-19.08a19.2,18.61 89.3 0 0 -18.27,19.53a19.2,18.61 89.3 0 0 18.75,19.08zm-95.5,6.13a18.48,17.94 81.7 0 0 14.99,-20.98a18.48,17.94 81.7 0 0 -20.32,-15.79a18.48,17.94 81.7 0 0 -14.99,20.98a18.48,17.94 81.7 0 0 20.32,15.79zm437.8,-18.3a18.44,18.54 0 0 0 -18.44,-18.54a18.44,18.54 0 0 0 -18.44,18.54a18.44,18.54 0 0 0 18.44,18.54a18.44,18.54 0 0 0 18.44,-18.54zm-110.49,41.76q-15.69,-1.69 -21.44,11.2q-2.64,5.92 -1.6,10.83c2.08,9.77 9.73,15.75 20.02,15.34q11.03,-0.42 16.08,-10.25c1.46,-2.83 1.74,-5.44 2.08,-8.5q28.34,-28.92 40.18,-39.85q4.99,-4.61 4.64,-9.21q-0.39,-5.29 -4.11,-8.28q-3.44,-2.76 -8.88,-2.57q-4.4,0.16 -7.33,3.23q-12.98,13.59 -26.29,25.61q-1.74,1.55 -6.42,6.47q-3.35,3.51 -6.94,5.98zm-88.28,24.1a13.01,12.63 86.5 0 0 11.74,-13.83a13.01,12.63 86.5 0 0 -13.33,-12.28a13.01,12.63 86.5 0 0 -11.74,13.83a13.01,12.63 86.5 0 0 13.33,12.28zm163.84,-12.56a12.18,12.25 0 0 0 -12.18,-12.25a12.18,12.25 0 0 0 -12.18,12.25a12.18,12.25 0 0 0 12.18,12.25a12.18,12.25 0 0 0 12.18,-12.25zm108.3,12.69a12.31,12.07 88.2 0 0 11.61,-12.76a12.31,12.07 88.2 0 0 -12.39,-12a12.31,12.07 88.2 0 0 -11.61,12.76a12.31,12.07 88.2 0 0 12.39,12zm-535.91,33.98q-26.02,-0.44 -35.94,-0.04q-2.23,0.1 -4.49,2.16q-1.47,1.34 -1.49,3.53c-0.04,6.64 -1.79,16.47 8.36,16.53q15.61,0.07 32.12,-0.21q2.99,3.61 4.05,4.64c6.07,5.85 15.58,5.78 22.91,1.37q6.48,-3.91 7.71,-12.59c2.1,-14.95 -13.38,-26.73 -26.93,-20.18q-2.34,1.13 -6.31,4.81zm-65.28,12.76a18.12,18.22 0 0 0 -18.12,-18.22a18.12,18.22 0 0 0 -18.12,18.22a18.12,18.22 0 0 0 18.12,18.22a18.12,18.22 0 0 0 18.12,-18.22zm632.95,0.04a18.16,18.26 0 0 0 -18.16,-18.26a18.16,18.26 0 0 0 -18.16,18.26a18.16,18.26 0 0 0 18.16,18.26a18.16,18.26 0 0 0 18.16,-18.26zm-77.34,-13.8c-17.62,6.94 -27.76,23.51 -24.69,42.33c1.07,6.54 14.44,5.58 19.36,4.61q1.96,-0.39 2.13,-2.4q0.41,-4.82 0.38,-10.18c-0.04,-8.45 7.01,-12.37 14.57,-11.84c6.81,0.48 7.84,-5.91 7.87,-11.18c0.07,-11.04 -10.66,-14.86 -19.62,-11.34zm-239.68,337.45q-0.84,11.87 0.17,14.82q1.56,4.54 6.23,5.13c4.32,0.54 13.1,1.2 16.84,-2.34c3.25,-3.09 2.09,-13.21 1.7,-17.51q0.22,-139.72 0.13,-279.54q-0.03,-26.04 -0.46,-52.09c-0.04,-2.45 -0.74,-4.07 -3.04,-4.81q-9.94,-3.17 -18.66,-0.16c-2.08,0.71 -3.06,1.79 -3.06,4.1q-0.1,127.2 0.27,273.26q0.07,29.31 -0.1,59.12zm-182.21,-315.2a12.65,12.11 -39.3 0 0 -17.41,-1.33a12.65,12.11 -39.3 0 0 -2.16,17.43a12.65,12.11 -39.3 0 0 17.41,1.33a12.65,12.11 -39.3 0 0 2.16,-17.43zm37.17,33.66q-80.65,0.06 -160.67,-0.07q-16.43,-0.01 -22.74,1.69c-18.97,5.13 -33.4,23.15 -39.05,41.45c-5.75,18.58 -5.94,35.91 -5.36,56.46q0.42,14.61 3,29.61c6.81,39.51 29.19,72.74 62.31,95.66q44.63,31.01 99.45,36.91a0.73,0.73 0 0 1 0.66,0.82c-1.33,14.1 5.02,29.54 17.29,37.42q3.01,1.92 5.12,4.19c5.47,5.88 4.14,14.65 -3.7,17.48q-5.06,1.83 -10.32,0.44c-14.37,-3.84 -25.45,-18.37 -30.31,-32.37c-1.75,-5.06 -4.28,-9.67 -10.04,-10.58c-8.4,-1.3 -14.34,5.64 -12.8,13.79c2.83,14.96 11.46,27.19 22.53,37.28c13.4,12.22 33.41,19.95 50.76,12.49c17.79,-7.64 25.5,-29.51 15.94,-46.54c-3.13,-5.56 -7.81,-9.26 -12.7,-13.18c-9.96,-7.98 -10.28,-17.34 -9.66,-28.98c0.31,-5.54 -1.56,-11.38 -7.45,-12.75c-6.72,-1.57 -13.94,-1.54 -20.6,-2.61q-42.34,-6.84 -78.41,-31.64q-8.55,-6.16 -11.93,-9.04q-32.81,-27.92 -42.08,-69.33c-4.04,-18.02 -3.49,-37.06 -2.8,-56.2c0.59,-16.37 5.99,-33.63 19.53,-43.54q6.6,-4.85 19.27,-4.85q82.61,-0.01 164.78,0.16q20.77,21.95 42.3,42.54q2.69,2.58 2.64,6.37q-0.22,14.79 -0.52,33.74c-0.11,6.78 0.06,13.68 6.74,16.19q8.2,3.07 13.17,-3.27c2.17,-2.79 2.13,-6.78 2.17,-10.17q0.27,-20.28 0.04,-42.67c-0.06,-5.53 -1.79,-9.25 -5.62,-13.08q-16.43,-16.51 -33.01,-32.36q-0.55,-0.51 -0.55,-1.27q-0.07,-6.09 -0.06,-11.89q0.03,-7.59 -6.1,-8.56q-6.84,-1.09 -21.23,0.25zm31.18,378.28q9.69,-0.27 18.56,-0.03q11.16,0.31 17.58,-1.02q17.41,-3.61 28.56,-17.84q12.53,-16 12.52,-34.02q-0.14,-136.15 -0.01,-275.8c0.01,-16.68 -1.37,-28.07 -12.79,-38.87q-13.33,-12.63 -31.17,-10.9q-3.76,0.37 -6.59,2.64c-3.41,2.71 -2.93,9.53 -2.94,13.52c-0.03,7.52 6.95,8.21 12.61,7.98c5.36,-0.23 10.14,4.2 13.07,8.54c3.77,5.56 3.39,9.49 3.39,15.75q-0.03,133.77 -0.01,267.54q0,12.51 -0.43,14.88c-1.96,10.84 -10.47,19.78 -20.78,23.27q-4.63,1.57 -14.11,1.54q-7.29,-0.03 -14.33,-0.2c-1.96,-0.04 -4.5,0.66 -6.04,-0.94c-8.5,-8.85 -20.84,-10.53 -30.4,-2.34c-17.18,14.72 -2.52,40.59 18.45,36.93c6.04,-1.06 9.84,-4.82 13.15,-9.69a2.15,2.14 16.4 0 1 1.71,-0.93zm-127.34,-301.1l-53.72,0.21q-5.41,-9.69 -14.92,-11c-11.99,-1.66 -22.7,6.53 -23.88,18.7c-2.22,22.91 27.3,32.95 38.89,12.38l52.47,-0.1l15.11,-0.27q1.71,-0.03 2.9,-1.25l28.81,-29.13a6.32,6.33 -67.4 0 1 4.46,-1.86l24.38,-0.03q4.28,0 4.29,-4.31l0.08,-15.23a3.04,3.06 0 0 0 -3.06,-3.07q-17.6,0.08 -34.58,0.06c-3.08,0 -5.29,1.57 -7.42,3.64q-15.69,15.23 -31.32,30.53q-0.86,0.83 -2.52,0.75zm502.53,20.39q6.03,11.08 18.82,11.24c16.07,0.2 23.91,-16.58 18.19,-30.15q-3.49,-8.26 -11.48,-10.8q-16.55,-5.26 -25.7,9.35l-56.17,0.06a2.44,2.44 -22.2 0 1 -1.74,-0.73q-13.84,-14.02 -28.27,-28.21c-3.65,-3.58 -6.51,-6.23 -11.93,-6.13q-12.79,0.24 -26.12,0.03c-3.58,-0.06 -9.11,-0.92 -9.42,4.39q-0.39,6.68 -0.17,12.61q0.22,5.88 6.28,5.89q11.54,0.01 24.16,-0.37a3.21,3.2 -23.9 0 1 2.31,0.89q14.64,14.28 28.31,29.1q2.24,2.44 3.77,2.47q31.59,0.54 63.1,0.23q2.99,-0.03 6.07,0.16zm-515.55,-42.89a11.83,11.9 0 0 0 -11.83,-11.9a11.83,11.9 0 0 0 -11.83,11.9a11.83,11.9 0 0 0 11.83,11.9a11.83,11.9 0 0 0 11.83,-11.9zm496.46,0.37a12.1,11.83 0.7 0 0 -11.96,-11.99a12.1,11.83 0.7 0 0 -12.24,11.67a12.1,11.83 0.7 0 0 11.96,11.99a12.1,11.83 0.7 0 0 12.24,-11.67zm-395.24,26.28q-13.07,0.01 -25.7,0.1c-11.19,0.07 -20.11,1.93 -26.51,12.11c-4.51,7.16 -3.79,16.41 1.02,23.36q6.27,9.05 18.14,7.63c11.02,-1.34 15.83,-10.24 16.43,-20.6q0.04,-0.9 0.94,-0.9l16.31,-0.08q1.58,1.68 3.27,3.5c13.22,14.27 34.6,4.61 35.78,-13.75c1,-15.41 -13.22,-26.71 -27.85,-21.78q-6.67,2.26 -11.83,10.42zm267.12,21.18l19.84,0.16a1.28,1.28 0 0 1 1.26,1.28q-0.03,18.6 16.22,20.26c17.75,1.8 26.82,-17.43 17.91,-31.77q-6.55,-10.55 -20.29,-11.04q-17.06,-0.61 -34.49,-0.28q-5.08,-8.25 -13.67,-10.77c-17.22,-5.09 -33.27,14.44 -24.37,30.57q6.45,11.69 19.18,12.18c7.99,0.31 14.18,-3.98 18.41,-10.59zm-66.73,20.56a12.17,11.97 123 0 0 16.62,-3.75a12.17,11.97 123 0 0 -3.35,-16.78a12.17,11.97 123 0 0 -16.62,3.75a12.17,11.97 123 0 0 3.35,16.78zm130.68,40.71q3.87,-2.33 6.67,-5.19q12.62,-12.97 26.09,-25.92c4.26,-4.07 5.85,-8.85 2.26,-14.24c-4.92,-7.43 -14.32,-6.8 -20.26,-0.97q-9.79,9.59 -20.02,19.7c-2.06,2.04 -4.11,3.86 -7.18,3.86q-19.67,-0.04 -35.5,-0.04a3.44,3.45 0 0 0 -3.44,3.4l-0.28,16.34q-0.06,3.43 3.34,3.41l47.67,-0.17a1.46,1.37 27.1 0 0 0.64,-0.18zm-409.73,-17.71l16.55,16.48a5.36,5.34 -22.5 0 0 3.76,1.55q20.29,0.04 42.29,-0.03q2.41,0 4.74,-0.31a2.78,2.79 0 0 0 2.41,-2.75l0,-16.82a3.08,3.1 0 0 0 -3.08,-3.12l-38.22,-0.11a3.65,3.61 -21.2 0 1 -2.59,-1.13l-10.1,-10.72q-3.69,-3.99 -7.89,-7.7q-6.39,-5.63 -8.1,-6.51c-3.95,-2.06 -10.12,-2.02 -13.64,1.24c-3.62,3.34 -5.16,8.91 -2.57,13.14q0.31,0.52 4.68,5.4q5.71,6.39 11.78,11.38zm-63.85,12.63l54.09,54.02a6.69,6.67 67.1 0 0 4.67,1.93l104.3,-0.03q0.73,0 1.29,0.48c1.29,1.11 2.08,2.93 3.22,4.23c7.11,7.99 17.91,8.4 27.3,3.76l0.38,54.47l-10.94,0.18a1.75,1.69 -25 0 1 -1.07,-0.37q-9.16,-7.35 -18.13,-16.38q-1.37,-1.4 -3.13,-2.37q-0.64,-0.35 -0.59,-1.09q0.15,-2.33 0.25,-4.55c0.29,-7.44 -6.65,-15.09 -12.48,-17.33q-8.54,-3.27 -16.78,0.48c-12.84,5.84 -16.59,24.59 -5.19,34.39q8.43,7.25 19.55,5.02a2.44,2.45 0 0 1 2.15,0.63l21.92,21.31a4.43,4.44 -22.7 0 0 3.1,1.27l21.9,0.04q7.53,0.24 15.28,-0.06c6.98,-0.27 6.02,-8.63 6.03,-13.51q0.06,-33.59 -0.21,-69.12q-0.01,-3.71 -1.93,-6.56q-3.39,-5.02 -11.86,-3.88q-0.2,-10.74 -7.81,-16.44c-9.51,-7.12 -20.74,-6.02 -29.11,2.92q-0.48,0.52 -1.19,0.52q-38.19,-0.47 -75.67,0.03q-10.46,0.14 -19.85,-0.27q-3.56,-0.17 -4.68,-1.25q-24.24,-23.7 -48.72,-48.08q-7.68,-8.47 -16.69,-16.58c-5.72,-5.16 -14.08,0 -16.6,5.68q-2.54,5.67 0.07,9.57q5.83,8.71 17.13,16.92zm540.55,-15.59l-49.23,47.86a5.06,5.08 -67 0 1 -3.52,1.44l-35.19,0l-60.71,-0.3q-0.74,0 -1.26,-0.54c-7.59,-7.85 -17.86,-9.62 -27.33,-3.27q-7.23,4.86 -8.61,14.13c-2.13,14.47 10.5,25.07 24.33,21.93q7.15,-1.62 11.88,-8.54a3.18,3.16 17.1 0 1 2.61,-1.37l59.18,0.03l45.67,-0.1a5.4,5.41 -67.1 0 0 3.76,-1.54l54.68,-53.68q11.86,-9.79 16.49,-16.72q2.59,-3.89 1.63,-8.49q-0.84,-3.96 -4.22,-6.8q-7.25,-6.03 -15.41,1.44q-7.71,7.05 -14.74,14.52zm-366.01,26.33a18.62,18.34 86.1 0 0 16.94,-19.92a18.62,18.34 86.1 0 0 -19.46,-17.44a18.62,18.34 86.1 0 0 -16.94,19.92a18.62,18.34 86.1 0 0 19.46,17.44zm211.83,-0.49a18.72,18.3 76.4 0 0 13.29,-22.6a18.72,18.3 76.4 0 0 -22.1,-14a18.72,18.3 76.4 0 0 -13.29,22.6a18.72,18.3 76.4 0 0 22.1,14zm2.02,103.68q24.09,0.62 30.59,0.28c8.57,-0.47 8.13,-10.66 7.49,-16.78c-0.46,-4.36 -3.84,-5.95 -7.91,-5.91q-15.68,0.16 -30.23,0.16q-22.13,0.11 -42.98,0.18c-4.05,0 -5.93,4.26 -5.93,7.7q-0.03,34.84 -0.07,70.23c-0.03,16.84 23.08,16.06 23.14,-0.18q0.11,-29.89 0.07,-54.99a0.83,0.83 0 0 1 0.83,-0.83l25,0.14zm3.31,51.59a12.27,12.01 77.4 0 0 8.97,-14.66a12.27,12.01 77.4 0 0 -14.33,-9.42a12.27,12.01 77.4 0 0 -8.97,14.66a12.27,12.01 77.4 0 0 14.33,9.42zm-16.21,54.2q6.28,10.77 18.55,10.19c19.14,-0.9 26.86,-25.83 11.27,-37.65c-8.83,-6.68 -22.69,-4.27 -29.3,4.39q-0.39,0.51 -1,0.3l-1.32,-0.48q-0.95,-0.35 -1.98,-0.3q-9.65,0.48 -19.46,0.51q-18.94,0.07 -29.18,-17.51c-2.26,-3.86 -2.55,-8.69 -2.96,-13.1c-0.46,-5.01 -4.21,-8.46 -8.96,-9.01c-7.35,-0.86 -15.4,1.2 -15.14,10.29q0.41,14.24 9.59,27.79q13.03,19.22 33.99,22.96q13.05,2.31 34.18,0.72q1.14,-0.08 1.71,0.9zm-171.94,-37.82a12.45,12.07 99.6 0 0 13.91,-10.34a12.45,12.07 99.6 0 0 -9.76,-14.37a12.45,12.07 99.6 0 0 -13.91,10.34a12.45,12.07 99.6 0 0 9.76,14.37z" fill="#021a29" id="svg_119"/>
   <path d="m170.13,129.48c5.65,-13.1 16.57,-25.61 27.15,-34.97q29.3,-25.96 65.38,-41.14q25.71,-10.83 52.83,-14.24c21.76,-2.75 41.54,2.4 55.34,19.91c7.04,8.93 8.67,18.41 8.68,30.54q0.04,43.05 -0.21,86.36a0.64,0.65 0 0 1 -0.64,0.65l-22.01,0.03q-1.3,0 -1.32,-1.33q-0.22,-44.99 -0.04,-87.55q0.03,-5.57 -1.82,-9.5c-7.07,-15.12 -24.42,-16.2 -38.63,-14.17q-16.73,2.4 -35.71,9.21q-37.94,13.61 -69.08,42.17c-14.08,12.92 -23.49,26.75 -22.83,46.83q0.28,8.76 -0.07,17.77q-0.36,8.97 -9.52,9.69c-8.54,0.68 -13.67,-4.4 -13.56,-12.73q0.14,-10.29 -0.03,-19.91c-0.18,-9.62 2.36,-18.95 6.1,-27.61z" fill="#fffffe" id="svg_120"/>
   <path d="m594.15,88.61l-16.76,16.85q-35.66,-26.16 -77.62,-37.77q-6.17,-1.71 -19.07,-3.74q-12.39,-1.95 -22.36,0.97c-8.6,2.52 -17.37,10.65 -17.33,20.19q0.34,79.3 -0.15,154.75q-0.04,5.91 -6.02,6.2q-6.65,0.34 -13.88,-0.14c-5.86,-0.41 -4.75,-5.1 -4.78,-9.07q-0.56,-80.44 0.01,-151.89q0.08,-11 7.47,-22.57c13.14,-20.61 36.22,-26.07 59.48,-23.04q19.9,2.59 37.07,8.93q6.35,2.34 14.29,5.48q32.56,12.83 59.65,34.84z" fill="#fffffe" id="svg_121"/>
   <path d="m482.82,126.55q-12.02,3.05 -21.75,-7.76q-8.29,-15.04 3.74,-26.49c16.01,-15.24 42.41,6.37 29.92,25.32q-4.09,6.2 -11.92,8.93z" fill="#fffffe" id="svg_122"/>
   <path d="m314.85,126.82q-12.17,-3.09 -14.75,-14.88q-2.38,-10.91 5.12,-18.32q9.66,-9.53 22.34,-4.19q6.3,2.65 9.51,9.31c1.96,4.1 1.68,9.62 1.23,14.07c-0.39,4.02 -3.04,6.98 -5.59,9.88a1.11,1.11 0 0 0 0.07,1.54c2.38,2.26 4.82,4.06 4.84,7.73q0.11,69.88 -0.06,140.28q-0.01,3.14 -0.45,6.36c-0.97,6.94 -7.59,9.64 -13.82,7.64q-7.63,-2.43 -7.64,-11.75q-0.11,-77.72 0.03,-146.61q0,-0.86 -0.81,-1.07z" fill="#65a4c3" id="svg_123"/>
   <path d="m594.15,88.61q15.45,12.01 26.7,27.85q13.35,18.78 13.67,41.53q0.18,12.69 -0.06,21.7q-0.28,10.97 -12.21,10.11c-7.23,-0.52 -10.59,-5.46 -10.35,-12.25q0.29,-8.31 0.39,-15.98c0.25,-20.91 -11.74,-36.56 -26.89,-49.18q-4.44,-3.69 -8.01,-6.92l16.76,-16.85z" fill="#65a4c3" id="svg_124"/>
   <circle cx="523.96" cy="117.89" fill="#65a4c3" id="svg_125" r="12.17"/>
   <ellipse cx="292.86" cy="177.97" fill="#65a4c3" id="svg_126" rx="8.82" ry="8.46" transform="matrix(-0.442579 1.33794 -1.33044 -0.445072 639.914 -194.556)"/>
   <path d="m461.07,118.8q9.73,10.8 21.75,7.76q0.32,6.75 -0.11,20.18q-0.39,11.75 0.21,38.38c0.41,17.86 -0.2,35.93 0,54.1c0.43,40.48 -0.06,81.01 -0.18,121.49q0,1.92 2.5,4.27q6.04,5.67 11.95,12.3q10.59,13.18 23.64,23.48q-0.79,2.44 -2.99,4.68q-16.6,16.89 -34.39,35.02q-5.85,5.95 -9.16,6.82q-7.91,2.09 -12.9,-4.5c-5.68,-7.49 1.09,-15.13 6.38,-19.97q10.95,-10 21.17,-20.01a1.86,1.86 45.1 0 0 0,-2.69q-12.07,-11.76 -22.66,-22.36q-2.45,-2.44 -4.14,-5.47c-2.3,-4.07 -1.44,-10.04 -1.44,-14.75q0.03,-111.91 -0.11,-218.54q-0.01,-9.93 0.49,-20.19z" fill="#65a4c3" id="svg_127"/>
   <path d="m578.92,173.62q-12.37,1.17 -20.99,-9.39q-7.45,-13.04 -0.07,-23.79c9.49,-13.83 30.08,-12.08 36.05,3.41c5.08,13.17 -1.29,26.44 -14.99,29.77z" fill="#fffffe" id="svg_128"/>
   <path d="m254.02,231.95l-16.47,16.92l-8.79,-9.76a3.1,3.12 0 0 1 -0.8,-2.09l0.45,-63.56a0.59,0.58 85.9 0 0 -0.66,-0.59c-6.62,0.86 -12.09,0.28 -17.48,-4.07q-7.53,-6.09 -7.42,-15.37c0.22,-21.01 24.28,-30.1 37.41,-13.21c3.74,4.81 3.87,11.82 3.1,17.71a2.48,2.47 33.1 0 0 0.36,1.68c2.48,3.95 6.98,6.12 6.97,11.34q-0.07,28.34 -0.28,55.74q-0.01,0.59 0.36,1.07l3.25,4.2z" fill="#65a4c3" id="svg_129"/>
   <circle cx="284.71" cy="163.39" fill="#fecf51" id="svg_130" r="13.78"/>
   <circle cx="511.83" cy="163.46" fill="#fecf51" id="svg_131" r="13.71"/>
   <path d="m557.93,164.23q8.62,10.56 20.99,9.39q-15.14,15.52 -31,30.7c-5.82,5.56 -11.47,11.45 -16.74,17.46c-2.01,2.27 -3.18,5.13 -5.62,7.04q-9.6,7.47 -19.8,3.34c-7.19,-2.92 -11.79,-10.81 -11.27,-18.61q0.63,-9.79 8.47,-14.78q8.79,-5.58 17.85,-1.2a2.27,2.27 36.1 0 0 2.55,-0.39l34.58,-32.94z" fill="#65a4c3" id="svg_132"/>
   <path d="m691.06,209.49q-12.13,3.6 -21.94,8.87q-3.21,-16.95 -17.25,-32.94q-2.83,-3.23 -1.28,-8.45q2.02,-6.82 8.5,-7.46c6.44,-0.63 13.03,5.13 16.84,9.98q10.5,13.34 15.13,29.99z" fill="#65a4c3" id="svg_133"/>
   <path d="m109.21,201.08c3.76,-9.87 10,-21.19 18.48,-27.64c4.99,-3.81 11.57,-4.33 16.43,-0.1c5.26,4.57 3.9,12.39 -0.77,16.96q-10.39,10.17 -13.99,25.39c-1.84,7.74 -1.21,15.91 -1.37,23.9c-0.18,9.11 -22.6,10.36 -23.26,-1.37q-1.25,-22.12 4.49,-37.15z" fill="#fffffe" id="svg_134"/>
   <ellipse cx="300.89" cy="245.78" fill="#65a4c3" id="svg_135" rx="13.69" ry="13.2" transform="matrix(0.0171297 1.40992 -1.40202 0.0172262 624.917 -213.9)"/>
   <ellipse cx="230.91" cy="250.49" fill="#fecf51" id="svg_136" rx="13.18" ry="12.72" transform="matrix(0.202405 1.39525 -1.38744 0.203545 488.359 -151.556)"/>
   <circle cx="609.59" cy="221.7" fill="#fecf51" id="svg_137" r="18.23"/>
   <path d="m691.06,209.49q1.91,14.55 1.46,32.43q-0.04,1.9 -1.04,2.88q-37.89,37.52 -75.45,74.98l-33.82,0l86.1,-83.64a3.2,3.2 67.6 0 0 0.98,-2.38l-0.18,-15.4q9.81,-5.27 21.94,-8.87z" fill="#fffffe" id="svg_138"/>
   <path d="m153.83,286.63l0.08,-22.53l56.08,0.38a5.65,5.65 63.1 0 1 3.25,1.07q5.19,3.78 9.8,8.39q18.24,18.25 33.51,33.21c3.86,3.76 7.36,7.99 11.13,11.89q2.12,2.17 5.06,2.2q17.78,0.11 34.95,0.14a0.7,0.71 0 0 0 0.7,-0.73q-0.04,-1.11 -0.1,-0.48l31.06,-0.06l14.86,0.82a1.07,1.07 0 0 0 1.14,-1.07l0.29,-100.15q0.01,-2.02 2.02,-2.03l19.62,-0.08a2.1,2.1 0.4 0 1 2.1,2.13q-0.42,55.5 -0.45,111.74c0,12.44 -8.05,11.79 -18.23,11.84q-46.45,0.23 -93.13,0.38c-4.14,0.01 -7.18,-0.55 -10.26,-3.57q-11.75,-11.44 -22.83,-22.69c-9.6,-9.77 -19.9,-19.43 -29.51,-29.36a4.98,4.96 -22 0 0 -3.6,-1.52l-47.56,0.08z" fill="#65a4c3" id="svg_139"/>
   <path d="m532.68,282.08q-1.07,-15.19 -15.14,-18.61q3.59,-2.47 6.94,-5.98q4.68,-4.92 6.42,-6.47q13.31,-12.01 26.29,-25.61q2.93,-3.07 7.33,-3.23q5.44,-0.2 8.88,2.57q3.72,2.99 4.11,8.28q0.35,4.6 -4.64,9.21q-11.85,10.93 -40.18,39.85z" fill="#65a4c3" id="svg_140"/>
   <path d="m254.02,231.95l84.88,86.73q0.36,0.38 0.43,0.92q0.03,0.23 0.03,0.51l-31.06,0.06l-70.77,-71.29l16.47,-16.92z" fill="#fffffe" id="svg_141"/>
   <ellipse cx="402.81" cy="288.18" fill="#65a4c3" id="svg_142" rx="9.28" ry="8.96" transform="matrix(0.0855975 1.40739 -1.39951 0.0860797 797.295 -317.208)"/>
   <circle cx="580.91" cy="275" fill="#65a4c3" id="svg_143" r="12.05"/>
   <ellipse cx="597.22" cy="288.82" fill="#65a4c3" id="svg_144" rx="8.78" ry="8.56" transform="matrix(0.0440418 1.40933 -1.40143 0.0442899 1079.46 -579.159)"/>
   <path d="m517.54,263.46q14.08,3.43 15.14,18.61c-0.34,3.06 -0.62,5.67 -2.08,8.5q-5.05,9.83 -16.08,10.25c-10.29,0.41 -17.95,-5.57 -20.02,-15.34q-1.04,-4.91 1.6,-10.83q5.75,-12.89 21.44,-11.2z" fill="#fffffe" id="svg_145"/>
   <path d="m153.91,264.1l-0.08,22.53q-29.72,0.32 -59.24,0.04q-5.78,-0.06 -8.37,-1.73c-6.73,-4.34 -5.45,-16.03 1.23,-19.53q2.45,-1.28 10.68,-1.28q27.97,-0.01 55.78,-0.03z" fill="#fffffe" id="svg_146"/>
   <path d="m164.06,343.62q-5.34,-11.55 1.43,-21.95q3.97,-3.68 6.31,-4.81c13.56,-6.56 29.04,5.23 26.93,20.18q-1.23,8.69 -7.71,12.59c-7.33,4.41 -16.84,4.48 -22.91,-1.37q-1.07,-1.03 -4.05,-4.64z" fill="#fffffe" id="svg_147"/>
   <path d="m564.54,321.64q5.9,7.99 4.33,15.59q-0.35,1.68 -2.38,6.71q-6.38,9.01 -16.18,8.88q-10.35,-0.14 -16.07,-8.29c-6.24,-8.91 -2.68,-20.26 6.07,-26.14c7.81,-5.26 17.72,-3.5 24.23,3.24z" fill="#fffffe" id="svg_148"/>
   <circle cx="82.09" cy="334.43" fill="#fecf51" id="svg_149" r="17.91"/>
   <circle cx="715" cy="334.47" fill="#fecf51" id="svg_150" r="17.96"/>
   <path d="m520.16,364.94l-22.74,-0.11q-0.17,-18.18 -0.01,-36.58q0.07,-6.98 6.72,-8.97c4.85,-1.45 11.46,-0.89 14.58,3.75q1.43,2.14 1.47,7.19q0.17,17.34 -0.01,34.71z" fill="#65a4c3" id="svg_151"/>
   <path d="m582.22,319.78l33.82,0q-12.14,10.01 -22.62,21.36c-1.85,2 -4.98,2.9 -7.94,2.92q-9.32,0.04 -19,-0.11q2.03,-5.03 2.38,-6.71q1.57,-7.6 -4.33,-15.59q7.43,-0.92 14.93,-0.51q0.88,0.04 1.51,-0.31q0.88,-0.51 1.23,-1.04z" fill="#65a4c3" id="svg_152"/>
   <path d="m631.12,363c-3.07,-18.82 7.07,-35.39 24.69,-42.33c8.96,-3.53 19.69,0.3 19.62,11.34c-0.03,5.27 -1.05,11.66 -7.87,11.18c-7.56,-0.52 -14.61,3.4 -14.57,11.84q0.03,5.36 -0.38,10.18q-0.17,2 -2.13,2.4c-4.92,0.97 -18.3,1.93 -19.36,-4.61z" fill="#65a4c3" id="svg_153"/>
   <path d="m441.06,658.21l-24.93,-0.1q0.17,-29.81 0.1,-59.12q-0.36,-146.06 -0.27,-273.26c0,-2.31 0.98,-3.4 3.06,-4.1q8.72,-3.02 18.66,0.16c2.3,0.73 3,2.35 3.04,4.81q0.43,26.04 0.46,52.09q0.1,139.82 -0.13,279.54z" fill="#fffffe" id="svg_154"/>
   <path d="m165.49,321.67q-6.77,10.41 -1.43,21.95q-16.52,0.28 -32.12,0.21c-10.15,-0.06 -8.4,-9.88 -8.36,-16.53q0.01,-2.19 1.49,-3.53q2.26,-2.06 4.49,-2.16q9.91,-0.39 35.94,0.04z" fill="#65a4c3" id="svg_155"/>
   <ellipse cx="259.67" cy="338.96" fill="#65a4c3" id="svg_156" rx="9.02" ry="8.59" transform="matrix(1.08502 -0.893081 0.888077 1.09113 -358.63 213.02)"/>
   <path d="m497.42,364.83l22.74,0.11l-0.04,10.11a1.46,1.47 0 0 0 1.46,1.48q92.18,0.04 177.35,-0.01c21.93,-0.01 40.76,17.67 48.64,37.07q8.44,20.77 7.67,42.99l-23.26,-0.17c-0.29,-19.92 -7.07,-50.35 -30.64,-55.26q-2.79,-0.58 -15.04,-0.58q-82.16,-0.06 -165.48,0.17q-13.05,-10.29 -23.64,-23.48l0.24,-12.44z" fill="#fffffe" id="svg_157"/>
   <path d="m271.11,400.74q1.51,-11.45 -0.01,-24.17q14.39,-1.34 21.23,-0.25q6.13,0.97 6.1,8.56q-0.01,5.8 0.06,11.89q0,0.76 0.55,1.27q16.57,15.85 33.01,32.36c3.83,3.84 5.57,7.56 5.62,13.08q0.22,22.39 -0.04,42.67c-0.04,3.38 0,7.37 -2.17,10.17q-4.96,6.35 -13.17,3.27c-6.69,-2.51 -6.86,-9.4 -6.74,-16.19q0.29,-18.95 0.52,-33.74q0.06,-3.79 -2.64,-6.37q-21.54,-20.59 -42.3,-42.54z" fill="#65a4c3" id="svg_158"/>
   <path d="m300.57,755.79c-3.31,4.86 -7.11,8.63 -13.15,9.69c-20.98,3.67 -35.63,-22.21 -18.45,-36.93c9.56,-8.19 21.9,-6.51 30.4,2.34c1.54,1.61 4.08,0.9 6.04,0.94q7.04,0.17 14.33,0.2q9.48,0.03 14.11,-1.54c10.31,-3.48 18.82,-12.42 20.78,-23.27q0.43,-2.37 0.43,-14.88q-0.01,-133.77 0.01,-267.54c0,-6.26 0.38,-10.19 -3.39,-15.75c-2.93,-4.34 -7.71,-8.77 -13.07,-8.54c-5.65,0.23 -12.63,-0.47 -12.61,-7.98c0.01,-3.99 -0.46,-10.81 2.94,-13.52q2.83,-2.27 6.59,-2.64q17.83,-1.73 31.17,10.9c11.41,10.8 12.8,22.19 12.79,38.87q-0.13,139.65 0.01,275.8q0.01,18.02 -12.52,34.02q-11.15,14.23 -28.56,17.84q-6.42,1.33 -17.58,1.02q-8.88,-0.24 -18.56,0.03a2.15,2.14 16.4 0 0 -1.71,0.93z" fill="#fffffe" id="svg_159"/>
   <path d="m271.1,376.58q1.53,12.72 0.01,24.17q-82.16,-0.17 -164.78,-0.16q-12.66,0 -19.27,4.85c-13.54,9.91 -18.94,27.17 -19.53,43.54c-0.69,19.15 -1.23,38.18 2.8,56.2q9.27,41.41 42.08,69.33q3.38,2.88 11.93,9.04l-15.76,17.82c-33.12,-22.91 -55.5,-56.15 -62.31,-95.66q-2.58,-15 -3,-29.61c-0.59,-20.54 -0.39,-37.87 5.36,-56.46c5.65,-18.3 20.08,-36.32 39.05,-41.45q6.31,-1.71 22.74,-1.69q80.02,0.13 160.67,0.07z" fill="#fffffe" id="svg_160"/>
   <path d="m173.79,473.95l1.15,-20.19q1.67,0.08 2.52,-0.75q15.63,-15.3 31.32,-30.53c2.13,-2.07 4.33,-3.64 7.42,-3.64q16.98,0.03 34.58,-0.06a3.04,3.06 0 0 1 3.06,3.07l-0.08,15.23q-0.01,4.31 -4.29,4.31l-24.38,0.03a6.32,6.33 -67.4 0 0 -4.46,1.86l-28.81,29.13q-1.19,1.23 -2.9,1.25l-15.11,0.27z" fill="#fffffe" id="svg_161"/>
   <path d="m677.29,453.79q-4.32,10.73 0.18,20.36q-3.08,-0.18 -6.07,-0.16q-31.51,0.31 -63.1,-0.23q-1.53,-0.03 -3.77,-2.47q-13.67,-14.82 -28.31,-29.1a3.21,3.2 -23.9 0 0 -2.31,-0.89q-12.62,0.38 -24.16,0.37q-6.06,-0.01 -6.28,-5.89q-0.22,-5.92 0.17,-12.61c0.31,-5.3 5.85,-4.44 9.42,-4.39q13.33,0.21 26.12,-0.03c5.43,-0.1 8.29,2.55 11.93,6.13q14.43,14.2 28.27,28.21a2.44,2.44 -22.2 0 0 1.74,0.73l56.17,-0.06z" fill="#65a4c3" id="svg_162"/>
   <circle cx="150.1" cy="431.26" fill="#65a4c3" id="svg_163" r="11.7"/>
   <ellipse cx="559.12" cy="396.35" fill="#65a4c3" id="svg_164" rx="8.63" ry="8.39" transform="matrix(1.40202 0.0172262 -0.0171297 1.40992 -130.814 -136.984)"/>
   <path d="m121.23,453.97q3.25,8.36 1.79,13.82q-0.86,3.24 -1.7,6.26c-11.6,20.57 -41.11,10.53 -38.89,-12.38c1.18,-12.17 11.89,-20.36 23.88,-18.7q9.51,1.31 14.92,11z" fill="#fffffe" id="svg_165"/>
   <path d="m677.48,474.15q-4.5,-9.63 -0.18,-20.36q9.16,-14.61 25.7,-9.35q7.99,2.54 11.48,10.8c5.72,13.56 -2.12,30.34 -18.19,30.15q-12.79,-0.16 -18.82,-11.24z" fill="#fffffe" id="svg_166"/>
   <path d="m263.78,479.52q-4.28,-6.87 -2.54,-14.41q0.8,-3.5 1.91,-7.21q5.16,-8.16 11.83,-10.42c14.62,-4.92 28.84,6.37 27.85,21.78c-1.18,18.36 -22.56,28.02 -35.78,13.75q-1.68,-1.82 -3.27,-3.5z" fill="#fffffe" id="svg_167"/>
   <path d="m530.72,457.69q5.02,11.58 -0.45,21.39c-4.23,6.61 -10.42,10.9 -18.41,10.59q-12.73,-0.49 -19.18,-12.18c-8.9,-16.13 7.15,-35.66 24.37,-30.57q8.6,2.52 13.67,10.77z" fill="#fffffe" id="svg_168"/>
   <path d="m174.94,453.76l-1.15,20.19l-52.47,0.1q0.84,-3.02 1.7,-6.26q1.46,-5.46 -1.79,-13.82l53.72,-0.21z" fill="#65a4c3" id="svg_169"/>
   <path d="m731.98,456.41l23.26,0.17q2.54,41.41 -11.01,76.45q-9.1,23.58 -26.42,42.61q-16.26,17.88 -34.34,29.48q-9.96,6.39 -20.09,11.39c-17.92,8.85 -38.46,16.41 -56.66,19.37q-8.05,1.33 -17.02,2.26q-1.11,0.11 -1.05,1.24c0.81,16.4 -6.09,30.13 -19.9,38.41c-5.62,3.37 -9.38,9.36 -5.61,15.69q0.72,1.21 4.01,5.05q-9.28,7.37 -13.64,17.98q-6.59,-4.48 -10.84,-11.51q-4.43,-7.29 -4.78,-14.38c-0.74,-14.65 6.87,-23.83 18.03,-31.5q9.58,-6.57 9.73,-18.47q0.1,-7.84 0.28,-15.54q0.13,-5.33 5.41,-6.63c6.84,-1.69 14.11,-1.99 21.07,-3.02q24.75,-3.65 50.28,-14.9q0.98,-0.44 1.98,-0.86q13.67,-5.87 28.04,-15.27q13.01,-8.52 25.91,-21.86c19.46,-20.12 30.51,-47.97 32.61,-75.7q1.16,-15.34 0.73,-30.47z" fill="#65a4c3" id="svg_170"/>
   <path d="m263.15,457.91q-1.11,3.71 -1.91,7.21q-1.74,7.54 2.54,14.41l-16.31,0.08q-0.9,0 -0.94,0.9c-0.6,10.36 -5.41,19.26 -16.43,20.6q-11.88,1.42 -18.14,-7.63c-4.81,-6.95 -5.54,-16.2 -1.02,-23.36c6.41,-10.18 15.33,-12.04 26.51,-12.11q12.63,-0.08 25.7,-0.1z" fill="#65a4c3" id="svg_171"/>
   <path d="m530.72,457.69q17.43,-0.32 34.49,0.28q13.74,0.49 20.29,11.04c8.92,14.34 -0.15,33.57 -17.91,31.77q-16.25,-1.66 -16.22,-20.26a1.28,1.28 0 0 0 -1.26,-1.28l-19.84,-0.16q5.47,-9.81 0.45,-21.39z" fill="#65a4c3" id="svg_172"/>
   <ellipse cx="433.62" cy="441.66" fill="#65a4c3" id="svg_173" rx="8.68" ry="8.49" transform="matrix(-0.76365 1.18254 -1.17592 -0.767953 1320.66 315.781)"/>
   <path d="m594.22,540.35a1.46,1.37 27.1 0 1 -0.64,0.18l-47.67,0.17q-3.39,0.01 -3.34,-3.41l0.28,-16.34a3.44,3.45 0 0 1 3.44,-3.4q15.83,0 35.5,0.04c3.07,0 5.12,-1.82 7.18,-3.86q10.24,-10.11 20.02,-19.7c5.94,-5.82 15.34,-6.46 20.26,0.97c3.59,5.39 2.01,10.17 -2.26,14.24q-13.47,12.94 -26.09,25.92q-2.8,2.86 -6.67,5.19z" fill="#fffffe" id="svg_174"/>
   <path d="m200.24,505.69q-8.58,7.74 -15.75,16.95q-6.07,-4.99 -11.78,-11.38q-4.37,-4.88 -4.68,-5.4c-2.59,-4.23 -1.05,-9.8 2.57,-13.14c3.52,-3.26 9.69,-3.3 13.64,-1.24q1.71,0.89 8.1,6.51q4.21,3.71 7.89,7.7z" fill="#65a4c3" id="svg_175"/>
   <path d="m136.72,519.68l-16.08,15.59q-11.3,-8.21 -17.13,-16.92q-2.61,-3.91 -0.07,-9.57c2.52,-5.68 10.88,-10.84 16.6,-5.68q9,8.11 16.69,16.58z" fill="#65a4c3" id="svg_176"/>
   <path d="m677.43,535.72l-16.25,-16.05q7.02,-7.47 14.74,-14.52q8.16,-7.47 15.41,-1.44q3.38,2.83 4.22,6.8q0.97,4.6 -1.63,8.49q-4.63,6.94 -16.49,16.72z" fill="#65a4c3" id="svg_177"/>
   <path d="m200.24,505.69l10.1,10.72a3.65,3.61 -21.2 0 0 2.59,1.13l38.22,0.11a3.08,3.1 0 0 1 3.08,3.12l0,16.82a2.78,2.79 0 0 1 -2.41,2.75q-2.33,0.31 -4.74,0.31q-22,0.07 -42.29,0.03a5.36,5.34 -22.5 0 1 -3.76,-1.55l-16.55,-16.48q7.16,-9.21 15.75,-16.95z" fill="#fffffe" id="svg_178"/>
   <ellipse cx="306.84" cy="467.47" fill="#fecf51" id="svg_179" rx="13.28" ry="13.01" transform="matrix(0.0953658 1.40676 -1.39888 0.095903 918.58 50.8423)"/>
   <ellipse cx="455.53" cy="467.01" fill="#fecf51" id="svg_180" rx="13.35" ry="12.98" transform="matrix(0.329698 1.37049 -1.36281 0.331555 988.855 -251.932)"/>
   <path d="m136.72,519.68q24.48,24.38 48.72,48.08q1.12,1.09 4.68,1.25q9.39,0.41 19.85,0.27q37.48,-0.49 75.67,-0.03q0.72,0 1.19,-0.52c8.37,-8.94 19.6,-10.04 29.11,-2.92q7.61,5.7 7.81,16.44q-0.86,6.54 -3.07,10.91q-1.61,3.2 -5.17,6.5c-9.39,4.64 -20.19,4.23 -27.3,-3.76c-1.15,-1.3 -1.93,-3.12 -3.22,-4.23q-0.56,-0.48 -1.29,-0.48l-104.3,0.03a6.69,6.67 67.1 0 1 -4.67,-1.93l-54.09,-54.02l16.08,-15.59z" fill="#fffffe" id="svg_181"/>
   <path d="m661.18,519.68l16.25,16.05l-54.68,53.68a5.4,5.41 -67.1 0 1 -3.76,1.54l-45.67,0.1l-0.08,-22.07l35.19,0a5.06,5.08 -67 0 0 3.52,-1.44l49.23,-47.86z" fill="#fffffe" id="svg_182"/>
   <path d="m573.24,568.97l0.08,22.07l-59.18,-0.03a3.18,3.16 17.1 0 0 -2.61,1.37q-4.73,6.92 -11.88,8.54c-13.82,3.14 -26.46,-7.46 -24.33,-21.93q1.37,-9.26 8.61,-14.13c9.46,-6.35 19.74,-4.58 27.33,3.27q0.52,0.54 1.26,0.54l60.71,0.3z" fill="#65a4c3" id="svg_183"/>
   <path d="m323.76,582.26q8.47,-1.14 11.86,3.88q1.92,2.85 1.93,6.56q0.27,35.53 0.21,69.12c-0.01,4.88 0.95,13.24 -6.03,13.51q-7.75,0.3 -15.28,0.06q1.05,-11.13 -0.56,-21.23l-0.38,-54.47q3.56,-3.3 5.17,-6.5q2.22,-4.37 3.07,-10.91z" fill="#65a4c3" id="svg_184"/>
   <path d="m124.35,583.55q36.06,24.8 78.41,31.64c6.66,1.07 13.88,1.04 20.6,2.61c5.89,1.37 7.75,7.21 7.45,12.75c-0.62,11.63 -0.29,21 9.66,28.98c4.89,3.92 9.58,7.63 12.7,13.18c9.56,17.03 1.85,38.9 -15.94,46.54c-17.34,7.46 -37.35,-0.27 -50.76,-12.49c-11.08,-10.1 -19.7,-22.32 -22.53,-37.28c-1.54,-8.15 4.4,-15.09 12.8,-13.79c5.76,0.9 8.29,5.51 10.04,10.58c4.87,14 15.94,28.54 30.31,32.37q5.26,1.4 10.32,-0.44c7.84,-2.83 9.17,-11.6 3.7,-17.48q-2.1,-2.27 -5.12,-4.19c-12.27,-7.88 -18.62,-23.32 -17.29,-37.42a0.73,0.73 0 0 0 -0.66,-0.82q-54.82,-5.91 -99.45,-36.91l15.76,-17.82z" fill="#65a4c3" id="svg_185"/>
   <path d="m315.9,654.14q1.61,10.11 0.56,21.23l-21.9,-0.04a4.43,4.44 -22.7 0 1 -3.1,-1.27l-21.92,-21.31a2.44,2.45 0 0 0 -2.15,-0.63q-11.12,2.23 -19.55,-5.02c-11.4,-9.8 -7.66,-28.55 5.19,-34.39q8.24,-3.75 16.78,-0.48c5.83,2.24 12.77,9.88 12.48,17.33q-0.1,2.23 -0.25,4.55q-0.06,0.73 0.59,1.09q1.75,0.97 3.13,2.37q8.97,9.04 18.13,16.38a1.75,1.69 -25 0 0 1.07,0.37l10.94,-0.18z" fill="#fffffe" id="svg_186"/>
   <path d="m508.97,626.94l0.06,22.25l-25,-0.14a0.83,0.83 0 0 0 -0.83,0.83q0.04,25.1 -0.07,54.99c-0.06,16.24 -23.16,17.02 -23.14,0.18q0.04,-35.39 0.07,-70.23c0,-3.44 1.88,-7.7 5.93,-7.7q20.85,-0.07 42.98,-0.18z" fill="#fffffe" id="svg_187"/>
   <path d="m508.97,626.94q14.55,0 30.23,-0.16c4.07,-0.04 7.45,1.55 7.91,5.91c0.64,6.12 1.08,16.31 -7.49,16.78q-6.51,0.34 -30.59,-0.28l-0.06,-22.25z" fill="#65a4c3" id="svg_188"/>
   <path d="m553.51,716.52q4.36,-10.6 13.64,-17.98c6.97,2.82 16.28,-1.21 21.83,-4.94c8.62,-5.77 16.11,-14.34 20.44,-24.1c3.01,-6.81 6.3,-14.02 14.57,-13.68q5.64,0.23 8.82,4.65q2.9,4 1.6,10.94c-1.4,7.39 -4.87,13.11 -8.74,19.23c-14.19,22.45 -45.79,43.09 -72.17,25.86z" fill="#fffffe" id="svg_189"/>
   <path d="m416.13,658.11l24.93,0.1c0.39,4.3 1.56,14.42 -1.7,17.51c-3.74,3.54 -12.52,2.88 -16.84,2.34q-4.67,-0.59 -6.23,-5.13q-1.01,-2.95 -0.17,-14.82z" fill="#65a4c3" id="svg_190"/>
   <ellipse cx="460.57" cy="581.61" fill="#65a4c3" id="svg_191" rx="8.75" ry="8.52" transform="matrix(0.305863 1.37606 -1.36835 0.307587 1164.63 -123.935)"/>
   <path d="m494.42,754.08q-21.13,1.59 -34.18,-0.72q-20.96,-3.74 -33.99,-22.96q-9.18,-13.55 -9.59,-27.79c-0.25,-9.09 7.8,-11.15 15.14,-10.29c4.75,0.55 8.5,4 8.96,9.01c0.41,4.41 0.7,9.24 2.96,13.1q10.24,17.58 29.18,17.51q9.81,-0.03 19.46,-0.51q1.02,-0.06 1.98,0.3l1.32,0.48q0.6,0.21 1,-0.3c6.62,-8.66 20.47,-11.07 29.3,-4.39c15.59,11.82 7.87,36.75 -11.27,37.65q-12.27,0.58 -18.55,-10.19q-0.57,-0.99 -1.71,-0.9z" fill="#65a4c3" id="svg_192"/>
   <ellipse cx="330.21" cy="593.83" fill="#65a4c3" id="svg_193" rx="8.88" ry="8.56" transform="matrix(-0.23383 1.39028 -1.38249 -0.235147 1224.43 385.364)"/>
  </g>
 </g>
</svg>